<svg xmlns="http://www.w3.org/2000/svg" viewBox="0 -0.5 64 48" shape-rendering="crispEdges">
<metadata>Made with Pixels to Svg https://codepen.io/shshaw/pen/XbxvNj</metadata>
<path stroke="#d86b2c" d="M0 0h1M10 0h1M15 0h2M26 0h1M31 0h2M42 0h1M47 0h2M58 0h1M63 0h1M1 1h8M11 1h4M17 1h8M27 1h4M33 1h4M39 1h2M43 1h4M50 1h3M54 1h2M59 1h4M1 2h7M11 2h1M13 2h2M17 2h8M27 2h4M33 2h6M40 2h1M43 2h4M49 2h8M59 2h4M1 3h8M11 3h4M17 3h6M24 3h1M27 3h4M33 3h2M36 3h5M43 3h4M49 3h8M59 3h4M1 4h6M8 4h1M12 4h3M17 4h8M28 4h3M33 4h4M39 4h2M44 4h3M49 4h8M61 4h2M1 5h8M10 5h1M15 5h1M17 5h8M31 5h1M33 5h8M42 5h1M47 5h1M49 5h5M55 5h1M58 5h1M1 6h1M3 6h6M17 6h4M22 6h3M33 6h8M49 6h8M1 7h8M11 7h4M17 7h8M27 7h4M33 7h7M43 7h4M49 7h7M59 7h2M62 7h1M1 8h8M11 8h4M18 8h7M27 8h4M33 8h8M43 8h4M49 8h5M55 8h2M59 8h4M1 9h8M11 9h4M17 9h2M20 9h3M24 9h1M27 9h4M33 9h8M43 9h1M45 9h2M49 9h8M59 9h4M2 10h6M10 10h5M18 10h6M26 10h5M34 10h6M42 10h3M46 10h1M50 10h6M58 10h5M4 11h4M12 11h3M20 11h4M26 11h2M29 11h2M36 11h4M42 11h5M52 11h4M58 11h5M1 12h1M10 12h5M17 12h1M26 12h2M29 12h2M33 12h1M41 12h2M44 12h3M49 12h1M57 12h6M1 13h3M9 13h6M17 13h3M25 13h5M33 13h3M41 13h6M49 13h3M57 13h3M61 13h2M1 14h6M9 14h5M17 14h6M25 14h5M33 14h6M41 14h5M49 14h5M57 14h5M0 15h1M7 15h1M15 15h1M23 15h1M31 15h2M39 15h1M47 15h1M55 15h1M63 15h1M0 16h1M10 16h1M15 16h2M26 16h1M31 16h2M42 16h1M47 16h2M58 16h1M63 16h1M1 17h3M5 17h4M11 17h4M17 17h5M23 17h2M27 17h3M33 17h8M43 17h2M46 17h1M49 17h8M59 17h4M1 18h8M11 18h1M13 18h2M17 18h4M22 18h3M27 18h4M33 18h8M44 18h2M49 18h5M55 18h2M59 18h4M1 19h8M11 19h4M17 19h8M28 19h3M33 19h1M35 19h6M43 19h4M50 19h7M59 19h4M1 20h8M12 20h3M17 20h8M28 20h3M33 20h1M35 20h6M44 20h3M49 20h7M60 20h3M2 21h7M10 21h1M15 21h1M17 21h5M23 21h2M26 21h1M31 21h1M33 21h8M47 21h1M49 21h8M58 21h1M63 21h1M1 22h8M17 22h5M24 22h1M33 22h2M36 22h5M49 22h2M53 22h4M1 23h3M5 23h1M7 23h2M11 23h4M17 23h6M24 23h1M27 23h4M33 23h1M36 23h1M38 23h3M44 23h3M49 23h8M59 23h4M1 24h8M11 24h4M17 24h4M22 24h3M27 24h4M33 24h6M40 24h1M43 24h4M49 24h1M52 24h5M59 24h1M61 24h2M1 25h3M5 25h4M11 25h4M17 25h8M27 25h2M30 25h1M33 25h8M44 25h3M49 25h8M59 25h4M2 26h2M5 26h3M10 26h2M13 26h2M18 26h1M20 26h4M26 26h5M34 26h6M42 26h3M46 26h1M50 26h4M55 26h1M58 26h5M4 27h4M10 27h2M13 27h2M20 27h1M22 27h2M26 27h5M36 27h4M42 27h5M53 27h3M58 27h5M1 28h1M9 28h6M17 28h1M25 28h6M33 28h1M41 28h1M43 28h4M49 28h1M57 28h6M1 29h3M9 29h6M17 29h3M25 29h6M33 29h3M41 29h4M46 29h1M49 29h1M51 29h1M57 29h6M1 30h6M9 30h3M13 30h1M17 30h4M22 30h1M25 30h5M34 30h5M41 30h5M49 30h6M57 30h5M0 31h1M7 31h1M15 31h2M23 31h1M31 31h2M39 31h1M47 31h2M55 31h1M63 31h1M0 32h1M10 32h1M15 32h2M26 32h1M31 32h2M42 32h1M48 32h1M58 32h1M63 32h1M1 33h5M11 33h4M17 33h8M27 33h3M33 33h4M38 33h3M43 33h4M50 33h6M59 33h4M1 34h8M11 34h2M14 34h1M17 34h8M27 34h4M33 34h8M43 34h3M49 34h6M56 34h1M59 34h4M1 35h8M11 35h2M14 35h1M17 35h6M24 35h1M27 35h4M33 35h2M36 35h5M44 35h3M49 35h7M59 35h4M1 36h8M12 36h3M17 36h8M28 36h3M33 36h8M44 36h3M49 36h8M60 36h3M1 37h8M10 37h1M17 37h5M23 37h1M26 37h1M31 37h1M33 37h8M42 37h1M47 37h1M49 37h5M55 37h2M58 37h1M63 37h1M1 38h8M17 38h8M33 38h1M35 38h6M49 38h5M55 38h2M1 39h8M11 39h4M17 39h8M27 39h4M33 39h8M43 39h4M50 39h7M59 39h3M1 40h7M11 40h4M18 40h5M24 40h1M27 40h4M33 40h2M36 40h5M43 40h4M49 40h7M59 40h4M1 41h8M11 41h1M13 41h2M17 41h4M22 41h3M27 41h4M33 41h8M43 41h4M49 41h5M55 41h2M59 41h1M61 41h2M2 42h6M10 42h5M18 42h6M26 42h3M30 42h1M34 42h6M42 42h5M50 42h6M58 42h4M4 43h4M10 43h5M20 43h1M22 43h2M28 43h3M36 43h2M39 43h1M42 43h5M52 43h4M58 43h5M1 44h1M9 44h2M12 44h3M17 44h1M25 44h5M33 44h1M42 44h1M44 44h3M49 44h1M57 44h6M1 45h1M3 45h1M9 45h6M17 45h3M25 45h3M29 45h2M33 45h3M41 45h6M49 45h3M57 45h5M1 46h6M9 46h5M17 46h3M21 46h2M25 46h2M28 46h2M33 46h5M41 46h5M49 46h4M54 46h1M57 46h5M0 47h1M7 47h1M15 47h2M31 47h2M39 47h1M48 47h1M55 47h1M63 47h1" />
<path stroke="#ffe5a1" d="M1 0h8M11 0h4M17 0h8M27 0h4M33 0h2M37 0h3M43 0h2M46 0h1M49 0h8M59 0h4M0 1h1M10 1h1M15 1h1M26 1h1M31 1h2M42 1h1M47 1h2M58 1h1M63 1h1M0 2h1M10 2h1M15 2h2M26 2h1M31 2h2M42 2h1M48 2h1M58 2h1M63 2h1M0 3h1M10 3h1M15 3h2M26 3h1M31 3h2M42 3h1M47 3h2M58 3h1M63 3h1M0 4h1M10 4h1M15 4h2M26 4h1M31 4h2M42 4h1M47 4h2M58 4h1M63 4h1M0 5h1M16 5h1M48 5h1M0 6h1M10 6h5M16 6h1M26 6h5M32 6h1M42 6h4M58 6h5M0 7h1M10 7h1M16 7h1M26 7h1M32 7h1M42 7h1M58 7h1M0 8h1M10 8h1M16 8h1M26 8h1M32 8h1M42 8h1M48 8h1M58 8h1M0 9h1M10 9h1M16 9h1M26 9h1M32 9h1M42 9h1M48 9h1M58 9h1M9 10h1M25 10h1M41 10h1M57 10h1M0 11h2M9 11h1M16 11h2M25 11h1M32 11h2M41 11h1M49 11h1M57 11h1M0 12h1M2 12h2M8 12h1M16 12h1M18 12h2M24 12h1M32 12h1M34 12h2M40 12h1M48 12h1M50 12h2M56 12h1M0 13h1M5 13h2M8 13h1M16 13h1M20 13h1M22 13h1M24 13h1M32 13h1M36 13h3M40 13h1M48 13h1M52 13h3M56 13h1M0 14h1M8 14h1M16 14h1M24 14h1M32 14h1M40 14h1M48 14h1M56 14h1M1 16h8M11 16h1M13 16h2M17 16h8M27 16h3M33 16h2M36 16h5M43 16h4M49 16h8M59 16h1M61 16h2M0 17h1M10 17h1M15 17h2M26 17h1M31 17h2M42 17h1M47 17h2M58 17h1M63 17h1M0 18h1M10 18h1M15 18h2M26 18h1M31 18h2M42 18h1M47 18h2M58 18h1M63 18h1M10 19h1M15 19h2M26 19h1M31 19h2M42 19h1M47 19h2M58 19h1M63 19h1M0 20h1M10 20h1M15 20h2M26 20h1M31 20h2M42 20h1M47 20h2M58 20h1M63 20h1M0 21h1M16 21h1M32 21h1M48 21h1M0 22h1M10 22h5M16 22h1M26 22h5M32 22h1M42 22h1M44 22h3M48 22h1M58 22h5M0 23h1M10 23h1M16 23h1M26 23h1M32 23h1M42 23h1M58 23h1M0 24h1M10 24h1M16 24h1M26 24h1M32 24h1M42 24h1M48 24h1M58 24h1M0 25h1M10 25h1M16 25h1M26 25h1M32 25h1M42 25h1M48 25h1M58 25h1M25 26h1M41 26h1M57 26h1M0 27h2M9 27h1M16 27h2M25 27h1M32 27h2M41 27h1M48 27h2M57 27h1M0 28h1M2 28h2M8 28h1M16 28h1M18 28h2M24 28h1M32 28h1M34 28h2M40 28h1M48 28h1M50 28h2M56 28h1M0 29h1M4 29h3M8 29h1M16 29h1M20 29h3M24 29h1M32 29h1M36 29h3M40 29h1M48 29h1M52 29h3M56 29h1M0 30h1M8 30h1M16 30h1M24 30h1M32 30h1M40 30h1M48 30h1M56 30h1M1 32h5M7 32h2M11 32h4M17 32h5M23 32h2M27 32h4M33 32h8M43 32h4M49 32h8M59 32h4M0 33h1M10 33h1M15 33h2M26 33h1M31 33h2M42 33h1M47 33h2M58 33h1M63 33h1M0 34h1M10 34h1M15 34h2M26 34h1M31 34h2M42 34h1M48 34h1M58 34h1M63 34h1M0 35h1M10 35h1M15 35h2M32 35h1M42 35h1M47 35h2M58 35h1M63 35h1M0 36h1M10 36h1M15 36h2M26 36h1M31 36h2M42 36h1M47 36h2M58 36h1M63 36h1M0 37h1M16 37h1M32 37h1M48 37h1M0 38h1M10 38h5M16 38h1M26 38h5M32 38h1M43 38h4M48 38h1M58 38h4M0 39h1M10 39h1M16 39h1M26 39h1M32 39h1M42 39h1M58 39h1M0 40h1M10 40h1M16 40h1M26 40h1M32 40h1M42 40h1M48 40h1M58 40h1M0 41h1M10 41h1M26 41h1M32 41h1M42 41h1M48 41h1M58 41h1M9 42h1M25 42h1M41 42h1M0 43h2M9 43h1M16 43h2M25 43h1M32 43h2M41 43h1M48 43h2M57 43h1M0 44h1M2 44h2M16 44h1M18 44h2M24 44h1M32 44h1M34 44h2M48 44h1M51 44h1M56 44h1M0 45h1M4 45h3M8 45h1M16 45h1M20 45h3M24 45h1M32 45h1M36 45h3M48 45h1M52 45h3M56 45h1M0 46h1M16 46h1M24 46h1M32 46h1M40 46h1M48 46h1M56 46h1" />
<path stroke="#000000" d="M9 0h1M25 0h1M41 0h1M57 0h1M25 1h1M41 1h1M57 1h1M9 2h1M25 2h1M41 2h1M57 2h1M25 3h1M41 3h1M57 3h1M9 4h1M11 4h1M41 4h1M43 4h1M57 4h1M59 4h1M9 5h1M11 5h3M25 5h1M27 5h2M30 5h1M41 5h1M43 5h4M57 5h1M59 5h4M9 6h1M15 6h1M25 6h1M31 6h1M41 6h1M47 6h1M57 6h1M63 6h1M9 7h1M15 7h1M25 7h1M31 7h1M47 7h1M57 7h1M63 7h1M9 8h1M25 8h1M31 8h1M41 8h1M47 8h1M57 8h1M63 8h1M15 9h1M25 9h1M31 9h1M41 9h1M47 9h1M57 9h1M63 9h1M0 10h2M8 10h1M15 10h3M24 10h1M31 10h3M40 10h1M47 10h3M56 10h1M63 10h1M2 11h2M8 11h1M15 11h1M18 11h2M24 11h1M31 11h1M34 11h2M40 11h1M47 11h1M50 11h2M56 11h1M63 11h1M4 12h4M15 12h1M20 12h4M31 12h1M37 12h3M47 12h1M52 12h4M7 13h1M15 13h1M23 13h1M31 13h1M39 13h1M47 13h1M55 13h1M63 13h1M7 14h1M15 14h1M23 14h1M30 14h2M39 14h1M46 14h2M55 14h1M62 14h2M1 15h6M8 15h7M17 15h6M24 15h7M34 15h5M40 15h7M49 15h6M56 15h5M62 15h1M9 16h1M25 16h1M41 16h1M57 16h1M9 17h1M25 17h1M41 17h1M57 17h1M9 18h1M25 18h1M41 18h1M57 18h1M9 19h1M25 19h1M41 19h1M57 19h1M9 20h1M11 20h1M25 20h1M27 20h1M41 20h1M57 20h1M59 20h1M9 21h1M11 21h4M25 21h1M27 21h4M41 21h1M43 21h2M46 21h1M57 21h1M59 21h4M9 22h1M15 22h1M25 22h1M31 22h1M41 22h1M63 22h1M9 23h1M15 23h1M25 23h1M31 23h1M41 23h1M47 23h1M57 23h1M63 23h1M9 24h1M15 24h1M25 24h1M31 24h1M41 24h1M47 24h1M57 24h1M63 24h1M9 25h1M15 25h1M25 25h1M31 25h1M41 25h1M47 25h1M57 25h1M63 25h1M0 26h2M8 26h1M15 26h3M24 26h1M31 26h3M40 26h1M47 26h3M56 26h1M63 26h1M2 27h2M8 27h1M15 27h1M18 27h2M24 27h1M31 27h1M34 27h2M40 27h1M47 27h1M50 27h2M63 27h1M4 28h4M15 28h1M20 28h4M31 28h1M36 28h4M47 28h1M52 28h1M54 28h2M63 28h1M7 29h1M15 29h1M23 29h1M31 29h1M39 29h1M47 29h1M55 29h1M63 29h1M7 30h1M14 30h2M23 30h1M30 30h2M39 30h1M46 30h2M55 30h1M62 30h2M1 31h1M3 31h4M8 31h2M11 31h4M17 31h6M24 31h7M34 31h5M40 31h3M44 31h3M49 31h5M56 31h7M9 32h1M25 32h1M41 32h1M57 32h1M9 33h1M25 33h1M41 33h1M57 33h1M41 34h1M57 34h1M9 35h1M25 35h1M41 35h1M57 35h1M9 36h1M11 36h1M25 36h1M27 36h1M41 36h1M43 36h1M57 36h1M59 36h1M9 37h1M11 37h4M25 37h1M27 37h4M41 37h1M43 37h2M46 37h1M57 37h1M59 37h4M9 38h1M15 38h1M25 38h1M31 38h1M41 38h1M47 38h1M57 38h1M63 38h1M9 39h1M15 39h1M25 39h1M31 39h1M41 39h1M47 39h1M57 39h1M63 39h1M9 40h1M15 40h1M25 40h1M31 40h1M41 40h1M57 40h1M63 40h1M9 41h1M15 41h1M25 41h1M31 41h1M41 41h1M47 41h1M57 41h1M63 41h1M0 42h2M8 42h1M15 42h3M24 42h1M31 42h3M40 42h1M48 42h2M56 42h1M63 42h1M2 43h2M8 43h1M15 43h1M18 43h2M24 43h1M31 43h1M34 43h2M40 43h1M47 43h1M50 43h2M56 43h1M63 43h1M4 44h4M15 44h1M20 44h4M31 44h1M36 44h4M47 44h1M53 44h3M63 44h1M7 45h1M15 45h1M23 45h1M39 45h1M47 45h1M55 45h1M7 46h1M14 46h1M23 46h1M30 46h2M39 46h1M46 46h2M55 46h1M62 46h2M1 47h1M3 47h4M8 47h2M11 47h4M17 47h2M20 47h3M24 47h7M33 47h5M40 47h7M49 47h4M54 47h1M56 47h3M60 47h3" />
<path stroke="#ffe5a0" d="M35 0h1M16 1h1M48 11h1M4 13h1M43 22h1M48 23h1M9 26h1M6 32h1M42 38h1" />
<path stroke="#fee5a1" d="M36 0h1M45 0h1M48 6h1M35 16h1M22 32h1M47 34h1M31 35h1M48 39h1M16 41h1M57 42h1M40 44h1M8 46h1" />
<path stroke="#ffe4a1" d="M40 0h1M47 2h1M32 5h1M46 6h1M48 7h1M21 13h1M12 16h1M30 16h1M60 16h1M0 19h1M26 35h1M62 38h1M8 44h1M50 44h1M40 45h1" />
<path stroke="#000100" d="M9 1h1M27 4h1M14 5h1M29 5h1M14 14h1M61 15h1M57 22h1M33 31h1M54 31h1M9 34h1M45 37h1M31 45h1M15 46h1M2 47h1M38 47h1M53 47h1M59 47h1" />
<path stroke="#d86b2d" d="M37 1h1M49 1h1M12 2h1M39 2h1M23 3h1M35 3h1M7 4h1M37 4h1M54 5h1M63 5h1M2 6h1M40 7h1M61 7h1M54 8h1M23 9h1M44 9h1M54 14h1M30 17h1M45 17h1M34 19h1M49 19h1M22 22h1M52 22h1M6 23h1M50 24h1M4 25h1M43 25h1M12 26h1M45 26h1M54 26h1M45 29h1M8 33h1M56 33h1M13 34h1M46 34h1M55 34h1M22 37h1M54 38h1M62 39h1M12 41h1M21 41h1M54 41h1M60 41h1M29 42h1M62 42h1M30 44h1M2 45h1M62 45h1" />
<path stroke="#d96b2c" d="M38 1h1M53 1h1M56 1h1M38 4h1M21 6h1M56 7h1M10 11h1M28 11h1M9 12h1M48 15h1M4 17h1M22 17h1M12 18h1M21 18h1M54 18h1M34 20h1M42 21h1M23 22h1M35 22h1M4 23h1M34 23h1M37 23h1M43 23h1M21 24h1M39 24h1M51 24h1M60 24h1M29 25h1M4 26h1M19 26h1M12 27h1M21 27h1M12 30h1M21 30h1M33 30h1M6 33h1M30 33h1M13 35h1M43 35h1M34 38h1M8 40h1M17 40h1M23 40h1M35 40h1M56 40h1M26 43h1M38 43h1M43 44h1M20 46h1M38 46h1M53 46h1" />
<path stroke="#d86a2c" d="M8 2h1M60 4h1M26 5h1M56 5h1M17 8h1M19 9h1M45 10h1M11 11h1M25 12h1M28 12h1M43 12h1M30 13h1M60 13h1M16 15h1M43 18h1M46 18h1M27 19h1M56 20h1M1 21h1M22 21h1M51 22h1M23 23h1M35 23h1M52 27h1M42 28h1M50 29h1M47 32h1M7 33h1M37 33h1M49 33h1M23 35h1M35 35h1M56 35h1M15 37h1M24 37h1M54 37h1M49 39h1M21 43h1M27 43h1M11 44h1M41 44h1M28 45h1M27 46h1M23 47h1M47 47h1" />
<path stroke="#010000" d="M9 3h1M41 7h1M9 9h1M36 12h1M63 12h1M33 15h1M43 20h1M45 21h1M47 22h1M53 28h1M2 31h1M47 40h1M52 44h1M63 45h1M10 47h1M19 47h1" />
<path stroke="#000001" d="M25 4h1M15 8h1M56 27h1M10 31h1M43 31h1M25 34h1M47 42h1" />
</svg>