<svg xmlns="http://www.w3.org/2000/svg" viewBox="0 0 167 64" shape-rendering="crispEdges">
<metadata>Made with Pixels to Svg https://codepen.io/shshaw/pen/XbxvNj</metadata>
<path stroke="#6f380c" d="M48 0h1M103 0h1M49 1h1M104 1h1M50 2h1M105 2h1M51 3h1M106 3h1M52 4h6M59 4h1M107 4h8M52 5h8M107 5h8M52 6h8M107 6h4M112 6h3M52 7h8M107 7h8M52 8h8M107 8h8M52 9h8M107 9h8M52 10h8M107 10h8M52 11h8M107 11h8M60 12h1M115 12h1M61 13h1M116 13h1M62 14h1M117 14h1M118 15h1M32 16h1M48 16h1M103 16h1M119 16h1M33 17h1M49 17h1M104 17h1M120 17h1M34 18h1M50 18h1M105 18h1M121 18h1M35 19h1M106 19h1M122 19h1M36 20h8M52 20h8M107 20h8M123 20h1M125 20h6M36 21h8M52 21h8M107 21h8M123 21h8M36 22h8M52 22h8M107 22h6M114 22h1M123 22h8M36 23h8M52 23h8M107 23h8M123 23h8M36 24h8M52 24h8M107 24h8M123 24h8M36 25h8M52 25h8M107 25h3M111 25h4M123 25h8M36 26h8M52 26h8M107 26h8M123 26h8M36 27h8M52 27h8M107 27h8M123 27h8M44 28h1M60 28h1M115 28h1M131 28h1M45 29h1M61 29h1M116 29h1M132 29h1M46 30h1M117 30h1M133 30h1M47 31h1M63 31h1M118 31h1M134 31h1M16 32h1M32 32h1M48 32h1M119 32h1M135 32h1M17 33h1M33 33h1M49 33h1M104 33h1M120 33h1M136 33h1M18 34h1M34 34h1M50 34h1M105 34h1M121 34h1M137 34h1M19 35h1M35 35h1M51 35h1M122 35h1M138 35h1M20 36h8M36 36h8M52 36h8M107 36h8M123 36h8M139 36h8M20 37h8M37 37h7M52 37h8M107 37h8M123 37h7M139 37h8M20 38h5M26 38h2M36 38h8M52 38h8M107 38h1M109 38h6M123 38h8M139 38h8M20 39h8M36 39h8M52 39h3M56 39h4M107 39h8M123 39h5M129 39h2M139 39h8M20 40h8M36 40h8M52 40h5M58 40h2M107 40h3M111 40h4M123 40h7M139 40h8M20 41h8M36 41h8M52 41h8M107 41h2M110 41h5M123 41h8M139 41h8M20 42h8M36 42h8M52 42h8M107 42h8M123 42h8M139 42h8M20 43h8M36 43h6M43 43h1M52 43h8M107 43h7M123 43h8M139 43h8M28 44h1M44 44h1M60 44h1M115 44h1M131 44h1M147 44h1M29 45h1M45 45h1M61 45h1M116 45h1M132 45h1M148 45h1M30 46h1M46 46h1M62 46h1M117 46h1M149 46h1M47 47h1M63 47h1M118 47h1M134 47h1M150 47h1M0 48h1M16 48h1M32 48h1M48 48h1M103 48h1M119 48h1M135 48h1M151 48h1M1 49h1M17 49h1M33 49h1M49 49h1M104 49h1M120 49h1M152 49h1M2 50h1M34 50h1M105 50h1M121 50h1M137 50h1M153 50h1M3 51h1M19 51h1M35 51h1M51 51h1M106 51h1M122 51h1M138 51h1M154 51h1M4 52h2M7 52h5M20 52h8M36 52h8M52 52h5M58 52h2M107 52h8M123 52h8M139 52h8M155 52h8M4 53h8M20 53h8M36 53h8M52 53h8M107 53h8M123 53h8M139 53h1M141 53h6M155 53h8M4 54h8M20 54h8M36 54h5M42 54h2M52 54h8M107 54h8M123 54h8M139 54h8M155 54h6M162 54h1M4 55h6M11 55h1M21 55h7M36 55h8M52 55h8M107 55h8M123 55h8M139 55h1M141 55h6M155 55h8M4 56h8M20 56h8M36 56h1M38 56h6M52 56h6M59 56h1M107 56h8M123 56h7M139 56h8M155 56h8M4 57h8M20 57h8M36 57h8M52 57h8M108 57h7M123 57h8M139 57h8M155 57h8M4 58h8M20 58h8M36 58h3M40 58h4M52 58h8M107 58h8M123 58h8M139 58h8M155 58h8M4 59h8M20 59h8M36 59h8M52 59h8M107 59h8M123 59h8M139 59h8M155 59h8M12 60h1M28 60h1M44 60h1M60 60h1M115 60h1M131 60h1M147 60h1M163 60h1M13 61h1M45 61h1M61 61h1M116 61h1M132 61h1M148 61h1M164 61h1M14 62h1M30 62h1M46 62h1M62 62h1M117 62h1M133 62h1M149 62h1M165 62h1M15 63h1M31 63h1M47 63h1M63 63h1M118 63h1M134 63h1M150 63h1M166 63h1" />
<path stroke="#bd9a94" d="M49 0h14M104 0h14M48 1h1M50 1h12M105 1h10M116 1h1M48 2h2M51 2h10M103 2h2M106 2h10M48 3h3M52 3h8M103 3h3M107 3h8M48 4h4M103 4h4M48 5h4M103 5h4M48 6h4M103 6h4M48 7h4M103 7h3M48 8h4M103 8h4M48 9h4M104 9h3M48 10h4M103 10h4M48 11h4M103 11h4M48 12h3M103 12h3M48 13h2M103 13h2M48 14h1M103 14h1M33 16h14M49 16h14M104 16h14M120 16h2M123 16h11M32 17h1M34 17h12M48 17h1M50 17h12M103 17h1M105 17h12M119 17h1M121 17h12M32 18h2M35 18h10M48 18h2M51 18h10M103 18h2M106 18h10M119 18h2M122 18h10M32 19h3M36 19h8M48 19h3M52 19h2M55 19h5M103 19h3M107 19h8M120 19h2M123 19h8M32 20h4M48 20h4M103 20h4M119 20h4M32 21h4M48 21h4M103 21h4M119 21h4M32 22h4M48 22h4M103 22h4M119 22h4M32 23h4M48 23h4M103 23h4M119 23h4M32 24h4M48 24h4M103 24h4M119 24h4M32 25h4M48 25h4M103 25h4M119 25h4M32 26h4M48 26h4M103 26h4M119 26h4M32 27h4M48 27h4M103 27h4M119 27h4M32 28h3M48 28h3M103 28h3M119 28h3M32 29h2M48 29h2M103 29h2M119 29h2M32 30h1M48 30h1M103 30h1M119 30h1M17 32h14M33 32h14M49 32h9M60 32h3M104 32h14M120 32h3M124 32h1M126 32h8M136 32h14M16 33h1M18 33h12M32 33h1M34 33h12M48 33h1M50 33h12M103 33h1M105 33h12M119 33h1M121 33h2M124 33h9M135 33h1M137 33h12M16 34h2M19 34h10M32 34h2M35 34h7M43 34h2M48 34h2M51 34h10M103 34h2M106 34h10M119 34h2M122 34h10M135 34h2M138 34h10M16 35h3M20 35h8M32 35h3M36 35h8M48 35h3M52 35h8M103 35h3M107 35h8M119 35h3M123 35h8M135 35h3M139 35h8M16 36h4M32 36h4M48 36h4M103 36h4M119 36h4M135 36h4M16 37h4M32 37h3M48 37h4M103 37h4M119 37h4M135 37h4M16 38h1M18 38h2M32 38h4M48 38h4M103 38h4M119 38h2M122 38h1M135 38h4M16 39h4M32 39h4M48 39h4M103 39h4M121 39h2M135 39h4M16 40h4M32 40h4M48 40h1M50 40h2M103 40h4M119 40h4M135 40h2M138 40h1M16 41h4M32 41h4M48 41h4M103 41h4M119 41h4M135 41h4M16 42h4M32 42h4M48 42h4M103 42h4M119 42h4M135 42h4M16 43h4M32 43h4M48 43h4M103 43h4M119 43h4M135 43h4M16 44h3M32 44h3M48 44h3M103 44h3M119 44h3M135 44h3M16 45h2M32 45h2M48 45h2M103 45h2M119 45h2M135 45h2M16 46h1M32 46h1M48 46h1M103 46h1M119 46h1M135 46h1M1 48h14M17 48h14M33 48h10M44 48h3M49 48h14M104 48h14M120 48h14M136 48h14M152 48h14M0 49h1M2 49h12M16 49h1M18 49h3M22 49h8M32 49h1M34 49h12M48 49h1M50 49h12M103 49h1M105 49h12M119 49h1M121 49h12M135 49h1M137 49h12M151 49h1M153 49h12M0 50h2M3 50h10M16 50h2M19 50h10M32 50h2M35 50h10M48 50h2M51 50h10M103 50h2M106 50h10M119 50h2M122 50h10M135 50h2M138 50h10M151 50h2M154 50h2M157 50h7M0 51h3M4 51h8M16 51h3M20 51h8M32 51h3M36 51h8M48 51h3M52 51h8M103 51h3M107 51h4M112 51h1M114 51h1M119 51h3M123 51h8M135 51h3M139 51h4M144 51h3M151 51h3M155 51h8M0 52h4M16 52h4M32 52h4M48 52h4M103 52h4M119 52h4M135 52h4M151 52h4M0 53h4M16 53h4M32 53h3M48 53h4M103 53h1M105 53h2M119 53h4M135 53h4M152 53h3M0 54h4M16 54h4M32 54h4M48 54h1M50 54h2M103 54h4M119 54h1M121 54h2M135 54h4M151 54h4M0 55h4M16 55h4M32 55h4M48 55h4M103 55h4M119 55h4M135 55h4M151 55h4M0 56h4M16 56h4M32 56h4M48 56h3M103 56h4M119 56h4M135 56h4M152 56h3M0 57h4M16 57h4M32 57h4M48 57h4M103 57h4M119 57h4M135 57h4M151 57h4M0 58h4M16 58h4M32 58h4M48 58h4M103 58h4M119 58h4M135 58h4M151 58h4M0 59h4M16 59h4M32 59h4M48 59h4M103 59h4M119 59h4M135 59h4M151 59h4M0 60h3M16 60h3M32 60h3M48 60h3M103 60h3M119 60h3M135 60h3M151 60h3M0 61h2M16 61h2M32 61h2M48 61h2M103 61h2M119 61h2M135 61h2M151 61h2M0 62h1M16 62h1M32 62h1M48 62h1M103 62h1M119 62h1M135 62h1M151 62h1" />
<path stroke="#000000" d="M63 0h1M62 1h2M117 1h2M61 2h3M116 2h3M60 3h4M115 3h4M60 4h3M115 4h4M60 5h4M115 5h4M60 6h4M115 6h4M60 7h4M115 7h4M60 8h4M115 8h4M60 9h4M115 9h4M60 10h4M115 10h4M60 11h4M115 11h4M51 12h9M61 12h3M106 12h9M116 12h3M50 13h11M62 13h2M105 13h11M117 13h2M49 14h13M63 14h1M104 14h13M118 14h1M48 15h6M55 15h8M103 15h14M47 16h1M63 16h1M118 16h1M134 16h1M46 17h2M62 17h2M117 17h2M133 17h2M45 18h3M61 18h3M116 18h3M132 18h3M44 19h4M60 19h4M115 19h4M131 19h3M44 20h4M60 20h4M115 20h4M131 20h4M44 21h4M60 21h4M115 21h4M131 21h4M44 22h4M60 22h4M115 22h4M131 22h4M44 23h4M60 23h4M115 23h4M131 23h4M46 24h2M60 24h4M116 24h3M131 24h4M44 25h4M60 25h4M115 25h4M131 25h4M44 26h4M60 26h4M115 26h1M117 26h2M131 26h4M44 27h4M60 27h4M115 27h4M131 27h4M35 28h7M43 28h1M45 28h3M51 28h9M61 28h3M106 28h9M116 28h3M122 28h9M132 28h3M34 29h4M39 29h6M46 29h2M50 29h11M62 29h2M105 29h11M117 29h2M121 29h11M133 29h2M33 30h13M47 30h1M49 30h3M53 30h9M63 30h1M104 30h4M109 30h8M118 30h1M120 30h6M127 30h6M134 30h1M32 31h3M36 31h11M48 31h15M103 31h6M110 31h8M119 31h1M121 31h5M127 31h7M31 32h1M47 32h1M63 32h1M118 32h1M134 32h1M150 32h1M30 33h2M46 33h2M62 33h2M117 33h2M133 33h2M149 33h2M29 34h3M45 34h3M61 34h3M116 34h3M132 34h3M148 34h3M28 35h4M44 35h4M60 35h4M115 35h4M131 35h4M147 35h4M28 36h4M44 36h4M60 36h4M115 36h4M131 36h4M147 36h4M28 37h4M44 37h4M60 37h4M115 37h4M131 37h4M147 37h4M28 38h4M44 38h4M60 38h4M115 38h4M131 38h4M147 38h4M28 39h4M44 39h4M60 39h4M116 39h3M131 39h1M133 39h2M147 39h4M28 40h4M44 40h4M60 40h4M115 40h4M131 40h2M134 40h1M147 40h2M28 41h4M44 41h4M60 41h4M115 41h4M131 41h4M147 41h4M28 42h3M44 42h4M60 42h4M75 42h4M91 42h4M115 42h4M131 42h3M147 42h4M28 43h4M44 43h4M60 43h4M74 43h1M79 43h1M90 43h1M95 43h1M115 43h4M131 43h4M147 43h4M19 44h9M29 44h3M36 44h8M45 44h3M51 44h9M61 44h3M72 44h2M80 44h1M88 44h2M96 44h1M106 44h9M116 44h3M122 44h1M124 44h7M132 44h3M138 44h9M148 44h3M18 45h11M30 45h2M34 45h11M46 45h2M50 45h11M62 45h2M71 45h1M80 45h1M82 45h1M87 45h1M96 45h1M98 45h1M105 45h11M117 45h2M121 45h11M133 45h2M137 45h11M149 45h2M17 46h7M25 46h5M31 46h1M33 46h4M38 46h8M47 46h1M49 46h13M63 46h1M71 46h1M81 46h1M83 46h1M87 46h1M97 46h1M99 46h1M104 46h13M118 46h1M120 46h10M131 46h2M134 46h1M136 46h13M150 46h1M16 47h1M18 47h13M32 47h15M48 47h15M71 47h1M84 47h1M87 47h1M100 47h1M103 47h15M119 47h11M131 47h3M135 47h11M147 47h3M15 48h1M31 48h1M47 48h1M63 48h1M70 48h1M84 48h1M86 48h1M100 48h1M118 48h1M134 48h1M150 48h1M166 48h1M14 49h2M30 49h2M46 49h2M62 49h1M69 49h1M84 49h2M100 49h1M118 49h1M133 49h2M149 49h2M165 49h2M13 50h3M29 50h3M45 50h3M61 50h3M66 50h3M117 50h2M132 50h3M148 50h3M164 50h3M12 51h4M28 51h4M44 51h4M60 51h4M65 51h1M102 51h1M115 51h4M131 51h4M148 51h3M163 51h4M12 52h4M28 52h4M44 52h4M60 52h5M115 52h2M118 52h1M131 52h4M147 52h4M163 52h4M12 53h4M28 53h4M44 53h4M60 53h4M115 53h4M131 53h4M147 53h4M164 53h3M12 54h4M28 54h4M44 54h4M60 54h4M115 54h4M131 54h4M147 54h4M163 54h4M12 55h4M29 55h3M44 55h4M60 55h4M115 55h4M131 55h2M134 55h1M147 55h4M163 55h1M165 55h2M12 56h4M28 56h4M44 56h1M46 56h2M60 56h4M115 56h4M131 56h4M147 56h4M163 56h2M166 56h1M12 57h4M28 57h4M45 57h3M60 57h4M115 57h4M131 57h4M147 57h4M163 57h4M12 58h4M28 58h4M44 58h2M47 58h1M60 58h4M115 58h4M131 58h4M147 58h4M163 58h4M12 59h4M28 59h4M44 59h4M60 59h4M115 59h4M131 59h4M147 59h4M163 59h4M3 60h9M13 60h3M19 60h9M29 60h3M35 60h9M45 60h3M51 60h9M61 60h3M106 60h9M116 60h3M122 60h2M125 60h3M129 60h2M132 60h3M138 60h3M142 60h5M148 60h3M154 60h9M164 60h3M3 61h10M14 61h2M18 61h11M30 61h2M34 61h11M46 61h2M50 61h11M62 61h2M105 61h11M117 61h2M121 61h11M133 61h2M137 61h11M149 61h2M153 61h11M165 61h2M1 62h13M15 62h1M17 62h13M31 62h1M33 62h1M35 62h10M47 62h1M49 62h13M63 62h1M104 62h13M118 62h1M120 62h13M134 62h1M136 62h13M150 62h1M153 62h12M166 62h1M0 63h15M16 63h4M21 63h1M23 63h8M32 63h15M48 63h15M64 63h22M87 63h31M119 63h15M135 63h6M142 63h8M151 63h3M155 63h11" />
<path stroke="#010000" d="M118 0h1M63 4h1M117 15h1M44 24h2M116 26h1M42 28h1M126 31h1M149 40h1M31 42h1M123 44h1M37 46h1M130 46h1M17 47h1M130 47h1M117 49h1M147 51h1M117 52h1M133 55h1M164 55h1M45 56h1M46 58h1M128 60h1M141 60h1M2 61h1M34 62h1M152 62h1M22 63h1" />
<path stroke="#bd9a95" d="M103 1h1M103 9h1M35 37h1M119 39h1M43 48h1M156 50h1M111 51h1M104 53h1M49 54h1M120 54h1" />
<path stroke="#bd9b94" d="M115 1h1M122 16h1M119 19h1M125 32h1M17 38h1M121 38h1M120 39h1M49 40h1M137 40h1M21 49h1M113 51h1M35 53h1M51 56h1" />
<path stroke="#6e380c" d="M58 4h1M111 6h1M113 22h1M110 25h1M106 35h1M108 38h1M130 40h1M133 46h1M50 50h1M161 54h1M37 56h1M130 56h1M39 58h1" />
<path stroke="#bc9a94" d="M106 7h1M54 19h1M59 32h1M123 32h1M123 33h1M42 34h1M143 51h1M151 53h1M151 56h1" />
<path stroke="#000100" d="M54 15h1M115 24h1M38 29h1M52 30h1M108 30h1M109 31h1M132 39h1M134 42h1M146 47h1M116 50h1M163 53h1M124 60h1M45 62h1M20 63h1M86 63h1M154 63h1" />
<path stroke="#6f390c" d="M63 15h1M51 19h1M36 37h1M25 38h1M55 39h1M128 39h1M110 40h1M31 47h1M136 49h1M57 52h1M10 55h1M58 56h1M107 57h1" />
<path stroke="#000001" d="M134 19h1M126 30h1M35 31h1M120 31h1M115 39h1M133 40h1M150 40h1M35 44h1M24 46h1M63 49h1M28 55h1M165 56h1M44 57h1M141 63h1" />
<path stroke="#6f380d" d="M124 20h1M62 30h1M103 32h1M130 37h1M57 40h1M109 41h1M42 43h1M114 43h1M18 50h1M6 52h1M140 53h1M41 54h1M20 55h1M140 55h1M29 61h1" />
<path stroke="#bc9a95" d="M58 32h1" />
<path stroke="#7fcd29" d="M75 43h4M91 43h4M74 44h6M90 44h6M72 45h8M88 45h8M72 46h9M82 46h1M88 46h6M95 46h2M98 46h1M72 47h6M79 47h5M88 47h2M92 47h3M96 47h4M71 48h3M76 48h3M81 48h3M87 48h1M90 48h6M97 48h3M70 49h3M74 49h6M81 49h3M86 49h2M89 49h11M69 50h3M73 50h15M89 50h12M66 51h36M65 52h3M69 52h34M64 53h24M89 53h14M64 54h19M84 54h7M92 54h4M97 54h6M64 55h2M67 55h32M100 55h3M64 56h39M64 57h17M82 57h21M64 58h37M102 58h1M64 59h39M64 60h26M91 60h12M64 61h22M87 61h16M64 62h33M98 62h5" />
<path stroke="#008d18" d="M94 46h1M90 47h2M95 47h1M74 48h2M79 48h1M89 48h1M96 48h1M73 49h1M80 49h1M88 49h1M72 50h1" />
<path stroke="#008d19" d="M78 47h1" />
<path stroke="#7fcd28" d="M80 48h1M88 53h1M83 54h1M99 55h1M81 57h1M101 58h1M90 60h1M86 61h1M97 62h1" />
<path stroke="#7ecd29" d="M88 48h1M68 52h1" />
<path stroke="#7fcc29" d="M88 50h1M91 54h1M96 54h1M66 55h1" />
<path stroke="#010001" d="M101 50h1" />
</svg>