<svg xmlns="http://www.w3.org/2000/svg" viewBox="0 18 64 64" shape-rendering="crispEdges">
<metadata>Made with Pixels to Svg https://codepen.io/shshaw/pen/XbxvNj</metadata>
<path stroke="#000000" d="M33 19h3M31 20h2M37 20h2M30 21h1M39 21h1M40 22h1M28 23h1M41 23h1M28 24h1M41 24h1M27 25h1M33 25h1M36 25h1M42 25h1M27 26h1M33 26h1M36 26h1M42 26h1M27 27h1M33 27h1M36 27h1M42 27h1M27 28h1M27 29h1M42 29h1M27 30h1M42 30h1M17 31h2M20 31h1M27 31h1M42 31h1M15 32h2M21 32h2M27 32h1M42 32h1M14 33h1M23 33h1M27 33h1M42 33h1M24 34h1M27 34h1M42 34h1M12 35h1M25 35h1M27 35h1M42 35h1M12 36h1M25 36h1M27 36h1M42 36h1M11 37h1M17 37h1M20 37h1M26 37h2M42 37h1M11 38h1M17 38h1M20 38h1M26 38h2M42 38h1M11 39h1M26 39h2M42 39h1M11 40h1M26 40h1M42 40h1M11 41h1M26 41h2M42 41h1M11 42h1M26 42h2M42 42h1M11 43h1M26 43h2M42 43h1M11 44h1M26 44h2M42 44h1M11 45h1M26 45h2M42 45h1M11 46h1M27 46h1M42 46h1M11 47h1M26 47h2M42 47h1M9 48h4M26 48h2M41 48h4M7 49h2M13 49h2M26 49h2M39 49h2M45 49h2M6 50h1M15 50h1M26 50h2M38 50h1M47 50h1M5 51h1M16 51h1M26 51h2M37 51h1M48 51h1M4 52h1M17 52h1M26 52h2M36 52h1M4 53h1M26 53h2M36 53h1M3 54h1M9 54h1M12 54h1M18 54h1M26 54h2M35 54h1M41 54h1M44 54h1M50 54h1M3 55h1M9 55h1M12 55h1M18 55h1M26 55h2M35 55h1M41 55h1M44 55h1M50 55h1M3 56h1M9 56h1M12 56h1M18 56h1M26 56h2M35 56h1M41 56h1M44 56h1M50 56h1M3 57h1M18 57h1M26 57h2M35 57h1M3 58h1M18 58h1M27 58h1M35 58h1M50 58h1M3 59h1M18 59h1M26 59h2M35 59h1M50 59h1M3 60h1M18 60h1M26 60h2M35 60h1M50 60h1" />
<path stroke="#000001" d="M36 19h1M13 34h1M17 39h1M27 40h1M49 52h1M50 57h1M26 58h1" />
<path stroke="#1ad554" d="M33 20h2M31 21h3M35 21h1M30 22h5M36 22h1M29 23h7M37 23h1M29 24h8M38 24h1M28 25h5M34 25h2M37 25h1M39 25h1M28 26h1M30 26h1M32 26h1M34 26h2M37 26h2M28 27h5M34 27h2M37 27h1M39 27h1M28 28h4M33 28h2M36 28h3M29 29h9M39 29h1M29 30h10M28 31h10M39 31h1M17 32h2M28 32h11M16 33h4M28 33h10M39 33h1M14 34h5M20 34h1M29 34h2M32 34h5M38 34h1M13 35h7M21 35h1M28 35h10M39 35h1M13 36h1M15 36h4M20 36h1M22 36h1M28 36h11M12 37h5M19 37h1M21 37h1M23 37h1M28 37h10M39 37h1M12 38h2M15 38h2M18 38h2M21 38h2M28 38h2M31 38h5M37 38h2M12 39h5M21 39h1M23 39h1M28 39h1M30 39h8M39 39h1M12 40h11M28 40h11M12 41h10M23 41h1M28 41h7M36 41h2M12 42h11M28 42h1M30 42h4M35 42h4M12 43h2M15 43h7M23 43h1M28 43h9M39 43h1M12 44h7M20 44h3M28 44h11M12 45h2M16 45h6M28 45h10M39 45h1M12 46h11M28 46h11M12 47h10M23 47h1M28 47h6M35 47h3M39 47h1M13 48h10M28 48h11M9 49h2M16 49h2M19 49h3M23 49h1M28 49h10M41 49h2M7 50h2M10 50h2M16 50h7M28 50h10M39 50h5M6 51h5M12 51h1M17 51h5M23 51h1M28 51h1M30 51h7M38 51h3M42 51h1M44 51h1M5 52h7M13 52h1M18 52h5M28 52h2M31 52h5M37 52h7M45 52h1M5 53h4M10 53h3M18 53h4M23 53h1M29 53h7M37 53h8M4 54h5M10 54h2M13 54h1M15 54h1M19 54h2M22 54h1M28 54h7M36 54h3M40 54h1M42 54h2M45 54h1M47 54h1M4 55h5M10 55h2M14 55h1M19 55h3M23 55h1M28 55h7M36 55h5M42 55h2M45 55h2M4 56h5M10 56h2M13 56h1M15 56h1M19 56h4M28 56h1M30 56h5M36 56h5M42 56h2M45 56h1M47 56h1M4 57h8M13 57h2M19 57h3M23 57h1M29 57h6M36 57h7M44 57h2M4 58h2M8 58h6M19 58h3M28 58h3M32 58h3M37 58h2M41 58h5M47 58h1M4 59h11M20 59h2M23 59h1M28 59h7M36 59h11M4 60h5M10 60h4M15 60h1M19 60h4M28 60h7M36 60h2M39 60h7M47 60h1" />
<path stroke="#00841c" d="M35 20h2M36 21h3M35 22h1M37 22h3M36 23h1M38 23h1M40 23h1M37 24h1M40 24h1M38 25h1M40 25h2M39 26h3M39 28h3M38 29h1M40 29h2M39 30h2M38 31h1M40 31h2M19 32h2M39 32h3M20 33h3M38 33h1M40 33h2M19 34h1M21 34h3M39 34h3M20 35h1M22 35h3M38 35h1M40 35h2M21 36h1M23 36h2M39 36h3M22 37h1M25 37h1M38 37h1M40 37h2M24 38h2M39 38h3M22 39h1M24 39h2M40 39h2M23 40h3M39 40h3M22 41h1M25 41h1M38 41h1M40 41h1M23 42h3M39 42h3M22 43h1M24 43h2M38 43h1M40 43h2M23 44h3M39 44h3M22 45h1M24 45h2M38 45h1M40 45h2M23 46h3M40 46h2M22 47h1M24 47h2M38 47h1M40 47h1M23 48h2M39 48h2M11 49h2M22 49h1M24 49h1M38 49h1M43 49h2M12 50h1M14 50h1M23 50h3M44 50h3M11 51h1M13 51h3M22 51h1M24 51h2M43 51h1M45 51h2M12 52h1M15 52h2M23 52h2M44 52h1M46 52h3M13 53h1M15 53h2M22 53h1M24 53h2M45 53h1M47 53h2M14 54h1M16 54h2M23 54h3M46 54h1M48 54h2M15 55h1M22 55h1M24 55h2M47 55h3M14 56h1M16 56h2M23 56h3M46 56h1M48 56h2M15 57h3M24 57h2M47 57h3M14 58h1M16 58h2M23 58h1M25 58h1M46 58h1M48 58h2M15 59h3M22 59h1M24 59h2M47 59h3M14 60h1M16 60h2M23 60h3M46 60h1M48 60h2" />
<path stroke="#1bd554" d="M34 21h1M32 28h1M35 28h1M18 37h1M14 38h1M19 39h1M14 43h1M34 47h1M15 49h1M9 53h1M28 53h1M46 53h1M40 58h1M19 59h1" />
<path stroke="#010000" d="M29 22h1M42 28h1M20 39h1M49 53h1" />
<path stroke="#00841d" d="M39 23h1M38 27h1M40 27h2M24 37h1M23 38h1M25 48h1M14 52h1M24 58h1" />
<path stroke="#01841c" d="M39 24h1M38 39h1M24 41h1M39 46h1M41 47h1M25 49h1M13 50h1" />
<path stroke="#1ad454" d="M29 26h1M28 30h1M31 34h1M14 36h1M30 38h1M36 38h1M29 39h1M35 41h1M34 42h1M19 44h1M23 45h1M18 49h1M9 50h1M29 51h1M41 51h1M13 55h1M29 56h1M12 57h1M43 57h1M7 58h1M22 58h1M36 58h1M9 60h1M38 60h1" />
<path stroke="#1ad555" d="M31 26h1M28 29h1M15 33h1M28 34h1M37 34h1M19 36h1M18 39h1M39 41h1M37 43h1M14 45h2M30 52h1M21 54h1M39 54h1M28 57h1M46 57h1M6 58h1M31 58h1M39 58h1" />
<path stroke="#00851c" d="M41 30h1M41 41h1M47 51h1M16 55h2M22 57h1" />
<path stroke="#000101" d="M19 31h1" />
<path stroke="#1bd555" d="M29 42h1" />
<path stroke="#000100" d="M26 46h1M17 53h1" />
<path stroke="#01841d" d="M25 52h1" />
<path stroke="#1bd454" d="M14 53h1" />
<path stroke="#1ad455" d="M15 58h1" />
</svg>