<svg xmlns="http://www.w3.org/2000/svg" viewBox="0 12 69 105" shape-rendering="crispEdges">
<metadata>Made with Pixels to Svg https://codepen.io/shshaw/pen/XbxvNj</metadata>
<path stroke="#f8a04b" d="M29 12h1M28 13h3M29 14h1" />
<path stroke="#d83217" d="M29 15h1M29 16h1M35 16h1M29 17h1M35 17h1M29 18h1M32 18h7M29 19h1M33 19h5M29 20h1M34 20h3M29 21h1M33 21h2M36 21h2M29 22h1M33 22h1M37 22h1M29 23h1M29 24h1M29 25h1" />
<path stroke="#ffffff" d="M30 15h11M30 16h1M32 16h3M36 16h5M30 17h5M36 17h3M40 17h1M30 18h2M39 18h2M30 19h3M38 19h3M30 20h4M37 20h4M30 21h3M35 21h1M38 21h3M30 22h3M34 22h3M38 22h3M30 23h11" />
<path stroke="#fffeff" d="M31 16h1" />
<path stroke="#feffff" d="M39 17h1" />
<path stroke="#fbbdb5" d="M12 26h5M23 26h9M38 26h9M52 26h5M16 27h1M23 27h1M31 27h1M38 27h1M46 27h1M52 27h1M23 28h1M31 28h1M38 28h1M46 28h1M52 28h1M16 29h1M23 29h1M31 29h1M38 29h1M46 29h1M52 29h1M16 30h1M23 30h1M31 30h1M38 30h1M46 30h1M52 30h1M16 31h1M23 31h1M31 31h1M38 31h1M46 31h1M52 31h1M16 32h1M23 32h1M31 32h1M38 32h1M46 32h1M52 32h1M16 33h8M31 33h8M46 33h7M0 58h4M10 58h1M12 58h6M23 58h9M38 58h9M52 58h9M66 58h3M3 59h1M17 59h1M23 59h1M31 59h1M38 59h1M46 59h1M52 59h1M60 59h1M66 59h1M3 60h1M9 60h1M17 60h1M23 60h1M31 60h1M38 60h1M46 60h1M52 60h1M60 60h1M66 60h1M3 61h1M9 61h1M17 61h1M23 61h1M31 61h1M38 61h1M46 61h1M52 61h1M60 61h1M66 61h1M3 62h1M9 62h1M17 62h1M23 62h1M31 62h1M38 62h1M46 62h1M52 62h1M60 62h1M66 62h1M3 63h1M9 63h1M17 63h1M23 63h1M31 63h1M46 63h1M60 63h1M66 63h1M3 64h1M9 64h1M17 64h1M23 64h1M31 64h1M38 64h1M46 64h1M52 64h1M60 64h1M66 64h1M3 65h7M17 65h7M31 65h8M46 65h7M60 65h7" />
<path stroke="#cb4f1e" d="M12 27h4M24 27h7M40 27h6M53 27h4M12 28h4M24 28h6M39 28h4M45 28h1M53 28h4M12 29h4M24 29h7M39 29h1M41 29h5M53 29h4M12 30h4M24 30h7M39 30h7M53 30h4M12 31h4M24 31h7M39 31h3M43 31h3M53 31h4M12 32h4M24 32h7M39 32h7M53 32h4M13 34h6M20 34h7M28 34h6M35 34h6M42 34h7M50 34h6M13 35h6M20 35h7M28 35h6M35 35h6M42 35h2M45 35h4M50 35h6M14 36h5M20 36h4M25 36h2M28 36h6M35 36h6M43 36h6M50 36h6M12 38h4M17 38h1M19 38h4M24 38h7M32 38h6M39 38h6M46 38h6M53 38h4M12 39h4M17 39h6M24 39h7M32 39h6M39 39h6M46 39h5M53 39h4M12 40h4M17 40h6M24 40h7M32 40h6M39 40h6M46 40h1M48 40h4M53 40h4M13 42h6M28 42h6M35 42h3M39 42h2M50 42h6M14 43h1M16 43h3M28 43h6M35 43h5M50 43h6M13 44h6M28 44h6M35 44h6M50 44h3M54 44h2M12 46h4M17 46h3M29 46h2M32 46h6M39 46h1M41 46h1M50 46h2M53 46h4M12 47h4M17 47h3M28 47h2M32 47h6M39 47h3M50 47h2M53 47h4M12 48h4M17 48h3M28 48h3M32 48h6M39 48h3M50 48h2M53 48h4M13 50h6M29 50h1M31 50h3M35 50h6M50 50h6M13 51h6M28 51h6M35 51h6M50 51h6M13 52h6M28 52h6M35 52h6M50 52h6M12 54h1M14 54h2M17 54h3M28 54h3M32 54h1M34 54h4M39 54h3M50 54h2M53 54h4M12 55h4M17 55h3M28 55h3M32 55h6M39 55h3M51 55h1M53 55h4M12 56h4M17 56h3M29 56h2M32 56h1M34 56h4M39 56h3M50 56h2M53 56h4M18 58h2M21 58h2M32 58h2M35 58h3M47 58h1M50 58h2M0 59h3M10 59h7M18 59h2M21 59h2M24 59h7M32 59h2M35 59h3M39 59h7M47 59h2M50 59h2M53 59h7M67 59h2M0 60h3M10 60h7M18 60h2M21 60h2M24 60h3M28 60h3M32 60h2M35 60h3M39 60h7M47 60h2M50 60h2M53 60h7M68 60h1M0 61h3M10 61h7M24 61h7M39 61h7M53 61h7M67 61h2M0 62h3M10 62h7M18 62h5M24 62h7M32 62h6M39 62h4M44 62h2M47 62h5M53 62h7M67 62h2M0 63h3M10 63h7M18 63h5M24 63h7M32 63h6M39 63h7M47 63h5M53 63h7M67 63h2M0 64h3M10 64h7M18 64h5M24 64h7M32 64h6M39 64h7M47 64h3M51 64h1M53 64h7M67 64h2M0 66h6M7 66h6M14 66h6M21 66h3M25 66h2M28 66h6M36 66h6M43 66h5M50 66h6M57 66h6M64 66h5M0 67h2M3 67h3M7 67h6M14 67h6M21 67h5M28 67h6M35 67h7M43 67h1M45 67h4M50 67h1M52 67h4M57 67h6M64 67h5M0 68h6M7 68h6M14 68h3M18 68h2M21 68h6M28 68h6M35 68h4M40 68h2M43 68h6M50 68h6M57 68h6M64 68h5M0 70h3M4 70h6M11 70h6M18 70h6M25 70h6M32 70h6M39 70h6M46 70h6M53 70h6M60 70h5M67 70h2M0 71h3M4 71h6M11 71h6M18 71h6M25 71h6M32 71h6M39 71h5M46 71h6M53 71h3M57 71h2M60 71h6M67 71h2M0 72h3M4 72h6M11 72h6M18 72h6M25 72h6M32 72h6M39 72h6M46 72h6M53 72h6M60 72h2M63 72h3M67 72h2M0 74h6M7 74h3M11 74h2M14 74h6M21 74h6M28 74h6M35 74h7M43 74h6M50 74h6M57 74h3M61 74h2M64 74h5M0 75h6M7 75h6M14 75h5M21 75h5M28 75h4M36 75h3M40 75h2M43 75h6M50 75h6M57 75h6M64 75h5M0 76h5M7 76h6M14 76h1M16 76h4M21 76h6M28 76h2M38 76h4M43 76h6M50 76h4M55 76h1M57 76h6M64 76h5M0 78h3M4 78h3M8 78h2M11 78h6M18 78h6M25 78h2M40 78h4M45 78h6M52 78h7M60 78h3M64 78h2M67 78h2M0 79h3M4 79h3M8 79h2M11 79h6M18 79h4M23 79h1M25 79h3M42 79h2M46 79h5M52 79h7M60 79h6M67 79h2M0 80h3M4 80h6M11 80h6M18 80h6M25 80h2M41 80h3M45 80h6M52 80h7M60 80h6M67 80h2M0 82h6M7 82h6M14 82h6M21 82h6M41 82h1M43 82h5M51 82h5M57 82h6M64 82h5M0 83h6M7 83h5M14 83h6M21 83h6M41 83h1M43 83h6M50 83h6M57 83h6M64 83h5M0 84h6M7 84h6M14 84h6M21 84h5M41 84h1M43 84h6M50 84h6M57 84h6M64 84h5M0 86h3M4 86h2M7 86h3M11 86h5M19 86h5M25 86h2M41 86h1M43 86h1M45 86h2M48 86h3M52 86h2M55 86h4M60 86h6M67 86h2M0 87h3M4 87h6M11 87h1M13 87h4M18 87h6M25 87h2M41 87h2M45 87h6M52 87h5M58 87h1M60 87h6M67 87h2M0 88h3M4 88h6M11 88h6M18 88h4M23 88h1M25 88h2M41 88h3M45 88h6M52 88h7M60 88h6M67 88h2M0 90h6M7 90h2M10 90h3M14 90h6M21 90h3M25 90h2M41 90h1M43 90h6M50 90h6M57 90h6M64 90h5M0 91h6M7 91h2M10 91h3M14 91h6M21 91h6M41 91h1M43 91h6M50 91h5M57 91h6M64 91h5M0 92h6M7 92h6M14 92h6M21 92h6M41 92h1M43 92h3M47 92h2M50 92h6M57 92h6M64 92h5M0 94h3M4 94h6M11 94h5M18 94h6M25 94h2M41 94h3M45 94h6M52 94h7M60 94h6M67 94h2M0 95h3M4 95h6M11 95h6M18 95h6M25 95h1M41 95h1M43 95h1M45 95h6M52 95h7M60 95h6M67 95h2M0 96h3M4 96h6M11 96h6M18 96h3M22 96h2M25 96h2M41 96h3M46 96h5M52 96h1M54 96h5M60 96h6M67 96h2M0 98h6M7 98h6M14 98h5M21 98h6M41 98h1M43 98h6M50 98h6M57 98h6M64 98h5M0 99h6M7 99h6M14 99h6M21 99h6M41 99h1M43 99h6M50 99h6M57 99h1M59 99h4M64 99h5M0 100h6M7 100h6M14 100h1M16 100h4M21 100h6M41 100h1M43 100h6M50 100h6M57 100h4M64 100h5M0 102h3M4 102h6M11 102h6M18 102h6M25 102h2M41 102h3M45 102h6M52 102h7M60 102h6M67 102h2M0 103h3M4 103h6M11 103h5M18 103h6M25 103h2M41 103h3M45 103h6M52 103h7M60 103h6M67 103h2M0 104h3M4 104h6M11 104h6M18 104h6M25 104h2M41 104h3M45 104h3M49 104h2M52 104h7M60 104h6M67 104h2" />
<path stroke="#ca4f1e" d="M39 27h1M30 28h1M42 31h1M24 36h1M42 36h1M18 38h1M51 39h1M15 43h1M30 47h1M30 50h1M33 54h1M33 56h1M48 58h1M27 60h1M24 66h1M48 66h1M51 67h1M39 68h1M60 74h1M39 75h1M15 76h1M54 76h1M27 78h1M63 78h1M45 79h1M48 82h1M12 83h1M6 86h1M18 86h1M42 86h1M54 86h1M12 87h1M57 87h1M9 90h1M24 90h1M9 91h1M42 95h1M21 96h1M45 96h1M15 100h1M48 104h1" />
<path stroke="#fbbcb5" d="M16 28h1M52 63h1" />
<path stroke="#cb4e1e" d="M43 28h1M40 29h1M13 36h1M13 43h1M40 43h1M28 46h1M40 46h1M28 50h1M13 54h1M28 56h1M67 60h1M43 62h1M10 74h1M19 75h1M7 78h1M7 79h1M22 79h1M40 79h1M16 86h1M43 87h1M22 88h1M55 91h1M46 92h1M16 94h1M19 98h1M58 99h1M61 100h1M16 103h1" />
<path stroke="#cb4f1f" d="M44 28h1M44 35h1M47 40h1M38 42h1M53 44h1M50 55h1M50 64h1M35 66h1M2 67h1M26 67h1M44 67h1M17 68h1M65 70h1M44 71h1M56 71h1M62 72h1M26 75h1M5 76h1M41 79h1M50 82h1M26 84h1M47 86h1M26 95h1M53 96h1M62 100h1" />
<path stroke="#000000" d="M12 33h4M24 33h7M39 33h7M53 33h4M12 34h1M19 34h1M27 34h1M34 34h1M41 34h1M49 34h1M56 34h1M12 35h1M19 35h1M27 35h1M34 35h1M41 35h1M49 35h1M56 35h1M12 36h1M19 36h1M27 36h1M34 36h1M41 36h1M49 36h1M56 36h1M12 37h13M26 37h31M16 38h1M23 38h1M31 38h1M38 38h1M45 38h1M52 38h1M16 39h1M23 39h1M31 39h1M38 39h1M45 39h1M52 39h1M16 40h1M23 40h1M31 40h1M38 40h1M45 40h1M52 40h1M12 41h12M25 41h30M56 41h1M12 42h1M19 42h9M34 42h1M41 42h7M49 42h1M56 42h1M12 43h1M19 43h9M34 43h1M41 43h9M56 43h1M12 44h1M19 44h9M34 44h1M41 44h3M45 44h4M56 44h1M12 45h13M26 45h31M16 46h1M20 46h8M31 46h1M38 46h1M42 46h8M52 46h1M16 47h1M20 47h8M31 47h1M38 47h1M42 47h8M52 47h1M16 48h1M20 48h8M31 48h1M38 48h1M42 48h5M48 48h2M52 48h1M13 49h27M41 49h16M12 50h1M19 50h9M34 50h1M41 50h1M43 50h7M56 50h1M12 51h1M19 51h9M34 51h1M41 51h9M56 51h1M12 52h1M19 52h9M41 52h9M56 52h1M12 53h5M18 53h39M16 54h1M20 54h8M31 54h1M38 54h1M42 54h8M52 54h1M16 55h1M20 55h8M31 55h1M38 55h1M42 55h8M52 55h1M16 56h1M20 56h8M31 56h1M38 56h1M42 56h8M52 56h1M12 57h28M42 57h8M51 57h6M20 58h1M34 58h1M49 58h1M20 59h1M34 59h1M49 59h1M20 60h1M34 60h1M49 60h1M18 61h5M32 61h6M47 61h5M0 65h3M10 65h7M24 65h7M39 65h7M53 65h7M67 65h2M6 66h1M13 66h1M20 66h1M27 66h1M34 66h1M42 66h1M49 66h1M56 66h1M63 66h1M6 67h1M13 67h1M20 67h1M27 67h1M34 67h1M42 67h1M49 67h1M56 67h1M63 67h1M6 68h1M13 68h1M20 68h1M27 68h1M34 68h1M42 68h1M49 68h1M56 68h1M63 68h1M0 69h48M49 69h20M3 70h1M10 70h1M17 70h1M24 70h1M31 70h1M38 70h1M45 70h1M52 70h1M59 70h1M66 70h1M3 71h1M10 71h1M17 71h1M24 71h1M31 71h1M38 71h1M45 71h1M52 71h1M59 71h1M66 71h1M3 72h1M10 72h1M17 72h1M24 72h1M31 72h1M38 72h1M45 72h1M52 72h1M59 72h1M66 72h1M0 73h37M38 73h6M45 73h9M55 73h3M59 73h10M6 74h1M13 74h1M20 74h1M27 74h1M34 74h1M42 74h1M49 74h1M56 74h1M63 74h1M6 75h1M13 75h1M20 75h1M27 75h1M32 75h4M42 75h1M49 75h1M56 75h1M63 75h1M6 76h1M20 76h1M27 76h1M30 76h8M42 76h1M49 76h1M56 76h1M63 76h1M0 77h53M54 77h1M56 77h13M3 78h1M10 78h1M17 78h1M24 78h1M28 78h12M44 78h1M51 78h1M59 78h1M66 78h1M3 79h1M10 79h1M17 79h1M24 79h1M28 79h8M37 79h3M44 79h1M51 79h1M59 79h1M66 79h1M3 80h1M10 80h1M17 80h1M24 80h1M27 80h3M31 80h10M51 80h1M59 80h1M66 80h1M0 81h20M21 81h12M34 81h15M50 81h19M6 82h1M13 82h1M20 82h1M27 82h14M42 82h1M49 82h1M56 82h1M63 82h1M6 83h1M13 83h1M20 83h1M27 83h14M49 83h1M56 83h1M63 83h1M6 84h1M13 84h1M20 84h1M27 84h2M30 84h5M36 84h5M42 84h1M49 84h1M56 84h1M63 84h1M0 85h58M59 85h10M3 86h1M10 86h1M24 86h1M27 86h14M44 86h1M51 86h1M59 86h1M66 86h1M3 87h1M10 87h1M17 87h1M24 87h1M27 87h14M44 87h1M51 87h1M59 87h1M66 87h1M3 88h1M10 88h1M17 88h1M24 88h1M27 88h14M44 88h1M51 88h1M59 88h1M66 88h1M0 89h20M21 89h44M66 89h3M6 90h1M13 90h1M20 90h1M27 90h14M42 90h1M49 90h1M56 90h1M63 90h1M6 91h1M13 91h1M20 91h1M27 91h11M39 91h2M42 91h1M49 91h1M56 91h1M63 91h1M6 92h1M13 92h1M27 92h14M42 92h1M56 92h1M63 92h1M0 93h69M3 94h1M10 94h1M17 94h1M24 94h1M27 94h14M44 94h1M51 94h1M59 94h1M66 94h1M3 95h1M10 95h1M17 95h1M24 95h1M27 95h14M44 95h1M51 95h1M59 95h1M66 95h1M3 96h1M10 96h1M17 96h1M24 96h1M27 96h1M29 96h12M44 96h1M51 96h1M59 96h1M66 96h1M0 97h69M6 98h1M13 98h1M20 98h1M28 98h13M42 98h1M49 98h1M56 98h1M63 98h1M6 99h1M13 99h1M20 99h1M27 99h14M42 99h1M56 99h1M63 99h1M6 100h1M13 100h1M20 100h1M27 100h3M31 100h10M42 100h1M49 100h1M56 100h1M63 100h1M0 101h6M7 101h41M49 101h20M3 102h1M10 102h1M17 102h1M24 102h1M27 102h2M30 102h11M44 102h1M51 102h1M59 102h1M66 102h1M3 103h1M10 103h1M17 103h1M24 103h1M27 103h14M44 103h1M51 103h1M59 103h1M66 103h1M3 104h1M10 104h1M17 104h1M24 104h1M27 104h12M40 104h1M44 104h1M51 104h1M59 104h1M66 104h1" />
<path stroke="#000100" d="M25 37h1M55 41h1M49 44h1M25 45h1M40 49h1M34 52h1M40 57h1M37 73h1M58 73h1M13 76h1M55 77h1M49 81h1M58 85h1M49 92h1M28 96h1M49 99h1" />
<path stroke="#010000" d="M24 41h1M48 42h1M12 49h1M42 50h1M48 69h1M54 73h1M36 79h1M30 80h1M33 81h1M42 83h1M27 98h1M30 100h1M6 101h1M48 101h1M39 104h1" />
<path stroke="#000001" d="M44 44h1M47 48h1M17 53h1M41 57h1M50 57h1M44 73h1M53 77h1M44 80h1M20 81h1M29 84h1M35 84h1M17 86h1M20 89h1M65 89h1M38 91h1M20 92h1M29 102h1" />
<path stroke="#fabdb5" d="M9 58h1M9 59h1" />
<path stroke="#fbbdb4" d="M11 58h1M38 63h1" />
</svg>