<svg xmlns="http://www.w3.org/2000/svg" viewBox="0 -0.5 48 24" shape-rendering="crispEdges">
<metadata>Made with Pixels to Svg https://codepen.io/shshaw/pen/XbxvNj</metadata>
<path stroke="#000000" d="M14 0h4M30 0h3M13 1h1M18 1h1M34 1h1M11 2h2M19 2h1M27 2h1M35 2h1M19 3h1M21 3h1M26 3h1M37 3h1M10 4h1M20 4h1M22 4h1M26 4h1M36 4h1M10 5h1M23 5h1M26 5h1M39 5h1M23 6h1M25 6h1M39 6h1M8 7h1M23 7h2M39 7h1M5 8h3M40 8h1M43 8h1M4 9h1M42 9h1M41 10h1M44 10h1M2 11h1M44 11h1M46 11h1M1 12h1M47 12h1M0 13h1M47 13h1M0 14h1M47 14h1M1 15h1M46 15h1M3 17h1M4 18h1M47 18h1M4 19h1M47 19h1M5 20h1M7 20h1M45 20h2M8 21h1M15 21h1M24 21h1M31 21h1M40 21h1M43 21h2M9 22h1M14 22h1M16 22h2M22 22h2M30 22h1M32 22h2M39 22h1M41 22h2M11 23h1M13 23h1M18 23h1M20 23h2M27 23h2M34 23h4" />
<path stroke="#010000" d="M33 0h1M9 6h1M3 10h1M45 12h1M45 16h1M6 20h1M12 23h1" />
<path stroke="#ffffff" d="M14 1h4M31 1h2M15 2h3M29 2h6M11 3h8M27 3h2M30 3h5M11 4h9M21 4h1M28 4h6M35 4h1M37 4h1M11 5h6M18 5h5M27 5h5M33 5h1M35 5h4M11 6h2M15 6h3M19 6h2M26 6h1M28 6h2M32 6h3M36 6h3M9 7h3M15 7h7M26 7h3M30 7h9M8 8h15M24 8h13M38 8h2M8 9h6M15 9h15M31 9h6M38 9h2M43 9h1M4 10h4M9 10h3M13 10h17M31 10h10M42 10h2M4 11h5M10 11h6M17 11h15M34 11h1M36 11h2M39 11h5M3 12h1M5 12h13M19 12h1M21 12h1M23 12h3M27 12h12M40 12h5M46 12h1M2 13h5M8 13h9M18 13h15M34 13h8M43 13h4M1 14h10M13 14h5M19 14h1M21 14h6M28 14h7M36 14h1M38 14h7M46 14h1M3 15h1M5 15h1M7 15h4M12 15h2M15 15h6M22 15h2M25 15h2M28 15h1M31 15h2M34 15h4M39 15h7M3 16h2M6 16h8M15 16h2M18 16h4M23 16h1M25 16h6M34 16h1M38 16h1M40 16h5M4 17h2M7 17h2M10 17h5M17 17h5M23 17h2M26 17h6M33 17h1M35 17h6M44 17h1M5 18h2M11 18h2M18 18h4M23 18h1M27 18h3M35 18h3M39 18h1M41 18h4M46 18h1M7 19h3M16 19h1M23 19h3M32 19h1M38 19h1M41 19h6M8 20h4M14 20h1M17 20h1M21 20h3M26 20h1M30 20h1M32 20h2M37 20h2M40 20h3M9 21h3M13 21h2M17 21h5M23 21h1M25 21h4M32 21h3M36 21h2M39 21h1M41 21h2M11 22h2M18 22h4M27 22h3M34 22h1M36 22h2" />
<path stroke="#000001" d="M29 1h1M35 3h1M38 4h1M44 9h1M2 12h1M2 16h1M26 22h1M38 22h1M29 23h1" />
<path stroke="#feffff" d="M30 1h1M33 1h1M18 2h1M27 4h1M21 6h1M27 6h1M6 9h1M30 9h1M12 10h1M30 10h1M3 11h1M9 11h1M33 11h1M18 12h1M39 12h1M33 13h1M42 13h1M12 14h1M18 14h1M27 14h1M45 14h1M6 15h1M21 15h1M24 15h1M27 15h1M30 15h1M33 15h1M24 16h1M36 16h1M39 16h1M15 17h1M42 17h1M45 17h1M45 18h1M6 19h1M39 19h1M15 20h1M24 20h1M27 20h1M39 20h1M12 21h1M30 21h1" />
<path stroke="#fffeff" d="M13 2h1M34 4h1M10 6h1M22 6h1M13 7h1M22 7h1M25 7h1M37 8h1M7 9h1M37 9h1M16 11h1M4 12h1M22 12h1M1 13h1M7 13h1M37 14h1M4 15h1M22 16h1M31 16h1M37 16h1M22 17h1M34 17h1M43 17h1M13 18h1M34 18h1M40 18h1M22 19h1M40 19h1M16 20h1M25 20h1M31 20h1M43 20h1M16 21h1M22 21h1M13 22h1" />
<path stroke="#fffffe" d="M14 2h1M29 3h1M32 5h1M14 7h1M23 8h1M5 9h1M14 9h1M8 10h1M32 11h1M35 11h1M38 11h1M20 12h1M26 12h1M17 13h1M11 14h1M20 14h1M35 14h1M2 15h1M11 15h1M14 15h1M29 15h1M38 15h1M14 16h1M32 16h1M35 16h1M41 17h1M5 19h1M44 20h1M29 21h1M35 21h1M38 21h1M35 22h1" />
<path stroke="#000100" d="M28 2h1M10 3h1M40 9h1M46 17h1M10 22h1M25 22h1M19 23h1" />
<path stroke="#00f7f7" d="M17 5h1M34 5h1M13 6h2M18 6h1M30 6h2M35 6h1M12 7h1M5 16h1M17 16h1M33 16h1M9 17h1M16 17h1M25 17h1M32 17h1M7 18h4M14 18h4M25 18h2M30 18h2M38 18h1M10 19h6M17 19h5M26 19h4M33 19h1M35 19h1M37 19h1M12 20h2M18 20h3M28 20h1M35 20h2" />
<path stroke="#00f7f6" d="M29 7h1M32 18h1M29 20h1" />
<path stroke="#01f7f7" d="M6 17h1M24 18h1M33 18h1M30 19h1M36 19h1" />
<path stroke="#00f6f7" d="M22 18h1M31 19h1M34 19h1M34 20h1" />
</svg>