<svg xmlns="http://www.w3.org/2000/svg" viewBox="0 -0.5 16 16" shape-rendering="crispEdges">
<metadata>Made with Pixels to Svg https://codepen.io/shshaw/pen/XbxvNj</metadata>
<path stroke="#cf681c" d="M6 0h2M10 2h1M4 3h1M6 3h2M6 4h1M13 7h2M1 9h1M5 9h1M11 9h2M14 9h1M4 10h1M11 10h1" />
<path stroke="#cf691d" d="M8 0h1M6 1h1M4 2h1M11 2h1M3 3h1M10 3h1M3 5h1M1 6h1M15 7h1M2 9h1M9 9h1M13 10h1" />
<path stroke="#cf691c" d="M9 0h1M5 1h1M5 2h2M8 2h2M5 3h1M8 3h1M11 3h2M2 4h1M8 4h1M10 4h1M13 4h1M1 5h1M6 5h1M8 5h2M12 5h1M14 5h1M2 6h1M12 6h1M7 7h2M12 7h1M0 8h3M7 8h2M12 8h1M14 8h2M3 9h2M6 9h3M1 10h1M12 10h1M14 10h1" />
<path stroke="#ce681c" d="M7 1h1M7 4h1M2 5h1M3 6h1" />
<path stroke="#cf681d" d="M8 1h2M0 7h2M3 7h1" />
<path stroke="#ce691c" d="M10 1h1M7 2h1M5 4h1M7 5h1M13 5h1M13 6h2M2 7h1M0 9h1M10 9h1M13 9h1M2 10h2" />
<path stroke="#ce681d" d="M9 3h1M9 4h1M13 8h1" />
<path stroke="#000000" d="M3 4h2M12 4h1M5 5h1M10 5h1M5 6h1M7 6h2M10 7h1M12 12h1M3 14h1M5 14h1M11 14h1M4 15h2M10 15h1M13 15h1" />
<path stroke="#010100" d="M11 4h1M9 6h1M13 13h1" />
<path stroke="#ffffff" d="M4 5h1M4 7h1M9 7h1M9 8h2" />
<path stroke="#feffff" d="M11 5h1M4 6h1M6 7h1" />
<path stroke="#000100" d="M6 6h1M5 7h1M12 14h1" />
<path stroke="#000001" d="M10 6h1M13 12h1M4 13h1M11 13h2M13 14h1M6 15h1M12 15h1" />
<path stroke="#fffeff" d="M11 6h1M11 7h1M4 8h2M11 8h1" />
<path stroke="#ce691d" d="M3 8h1M15 9h1" />
<path stroke="#fffffe" d="M6 8h1" />
<path stroke="#fec993" d="M5 10h2M4 11h2M5 12h1M8 12h2" />
<path stroke="#ffc993" d="M7 10h2M10 10h1M9 11h1M11 11h1M4 12h1M6 12h2M10 12h2M7 13h3" />
<path stroke="#ffc892" d="M9 10h1" />
<path stroke="#fec892" d="M6 11h1" />
<path stroke="#fec992" d="M7 11h1" />
<path stroke="#ffc893" d="M8 11h1M10 11h1" />
<path stroke="#010001" d="M3 13h1M11 15h1" />
<path stroke="#ffc992" d="M5 13h2" />
<path stroke="#010101" d="M10 13h1" />
<path stroke="#000101" d="M14 13h1" />
<path stroke="#010000" d="M4 14h1M10 14h1M14 14h1" />
</svg>