<svg xmlns="http://www.w3.org/2000/svg" viewBox="0 -0.5 16 16" shape-rendering="crispEdges">
<metadata>Made with Pixels to Svg https://codepen.io/shshaw/pen/XbxvNj</metadata>
<path stroke="#cf681c" d="M6 0h1M5 1h2M6 2h1M7 3h1M8 4h1M1 5h1M12 7h1M0 8h1M8 9h1M12 10h1" />
<path stroke="#ce691d" d="M7 0h1M8 1h1M9 2h1M5 3h1M6 4h1M3 5h1M2 6h1M3 8h1M3 9h1" />
<path stroke="#cf681d" d="M8 0h1M2 7h1M15 7h1M15 8h1M11 10h1" />
<path stroke="#cf691c" d="M9 0h1M9 1h2M4 2h2M7 2h2M10 2h2M4 3h1M6 3h1M8 3h3M12 3h1M2 4h1M9 4h1M2 5h1M6 5h3M13 5h1M3 6h1M12 6h2M1 7h1M3 7h1M7 7h1M14 7h1M13 8h2M1 9h2M4 9h1M6 9h2M13 9h1M15 9h1M1 10h2M4 10h1M13 10h2" />
<path stroke="#ce691c" d="M7 1h1M5 4h1M10 4h1M13 4h1M9 5h1M12 5h1M1 6h1M0 7h1M8 7h1M13 7h1M12 8h1M0 9h1M5 9h1M10 9h3M14 9h1" />
<path stroke="#cf691d" d="M3 3h1M11 3h1M7 4h1M14 5h1M14 6h1M2 8h1M7 8h2M9 9h1M3 10h1" />
<path stroke="#010000" d="M3 4h1" />
<path stroke="#000101" d="M4 4h1M2 12h1" />
<path stroke="#000000" d="M11 4h2M10 5h1M5 6h1M7 6h1M9 6h1M5 7h1M10 7h1M3 12h1M1 13h1M3 13h1M5 13h1M11 13h1M2 14h4M11 14h1M2 15h2M9 15h2" />
<path stroke="#feffff" d="M4 5h1" />
<path stroke="#010001" d="M5 5h1M10 14h1M5 15h1" />
<path stroke="#ffffff" d="M11 5h1M4 7h1M6 7h1M9 7h1M6 8h1M9 8h3" />
<path stroke="#fefeff" d="M4 6h1M11 6h1" />
<path stroke="#000100" d="M6 6h1M8 6h1M4 15h1" />
<path stroke="#000001" d="M10 6h1M2 13h1M4 13h1M12 14h1" />
<path stroke="#fffffe" d="M11 7h1M4 8h2" />
<path stroke="#ce681c" d="M1 8h1" />
<path stroke="#ffc992" d="M5 10h1M8 11h1M5 12h1M10 12h2M9 13h1" />
<path stroke="#ffc993" d="M6 10h2M6 11h2M9 11h3M6 12h1M6 13h3M10 13h1" />
<path stroke="#fec893" d="M8 10h1M4 12h1" />
<path stroke="#ffc892" d="M9 10h1" />
<path stroke="#fec992" d="M10 10h1" />
<path stroke="#fec993" d="M4 11h2M7 12h1M9 12h1" />
<path stroke="#fec892" d="M8 12h1" />
<path stroke="#010100" d="M12 13h1M1 14h1M11 15h1" />
</svg>