<svg xmlns="http://www.w3.org/2000/svg" viewBox="0 -0.5 64 64" shape-rendering="crispEdges">
<metadata>Made with Pixels to Svg https://codepen.io/shshaw/pen/XbxvNj</metadata>
<path stroke="#000000" d="M22 45h5M29 45h3M21 46h1M27 46h2M20 47h1M32 47h1M20 48h3M25 48h1M27 48h3M31 48h1M19 49h1M22 49h2M25 49h1M31 49h1M19 50h1M22 50h2M26 50h1M31 50h1M20 51h2M25 51h6M21 52h2M30 52h1M19 53h1M29 53h1M18 54h1M20 54h1M29 54h3M17 55h1M21 55h1M32 55h1M17 56h1M21 56h1M29 56h1M32 56h1M18 57h1M20 57h2M31 57h1M17 58h1M26 58h3M31 58h1M17 59h1M20 59h1M24 59h1M29 59h2M18 60h2M22 60h2" />
<path stroke="#d61c25" d="M22 46h5M21 47h8M30 48h1M30 49h1M30 50h1M29 52h1M21 53h1M25 53h2M28 53h1M21 54h3M26 54h2M22 55h2M22 56h1" />
<path stroke="#eabbac" d="M29 46h3M30 47h2M23 48h2M26 48h1M20 49h2M24 49h1M26 49h2M29 49h1M20 50h2M24 50h2M27 50h3M22 51h3M23 52h1M25 52h4M18 55h3M18 56h1M20 56h1" />
<path stroke="#000100" d="M32 46h1M28 57h1M21 58h1M25 59h1" />
<path stroke="#010000" d="M29 47h1" />
<path stroke="#eabaac" d="M28 49h1M19 56h1" />
<path stroke="#eabbad" d="M24 52h1" />
<path stroke="#d71c25" d="M20 53h1M24 53h1M25 54h1" />
<path stroke="#d61c24" d="M22 53h1" />
<path stroke="#5e8ab6" d="M23 53h1M27 53h1M24 54h1M28 54h1M24 55h1M27 55h1M23 56h6M22 57h6M23 58h2M21 59h3" />
<path stroke="#000001" d="M19 54h1M29 55h1M21 60h1" />
<path stroke="#ecd432" d="M25 55h1M28 55h1" />
<path stroke="#5e8ab7" d="M26 55h1M22 58h1M25 58h1" />
<path stroke="#754714" d="M30 55h2M30 56h2M19 57h1M29 57h2M18 58h3M29 58h2M18 59h2" />
</svg>