<svg xmlns="http://www.w3.org/2000/svg" viewBox="0 -0.5 64 24" shape-rendering="crispEdges">
<metadata>Made with Pixels to Svg https://codepen.io/shshaw/pen/XbxvNj</metadata>
<path stroke="#000000" d="M14 0h1M17 0h1M31 0h1M33 0h1M46 0h2M49 0h1M13 1h1M18 1h1M45 1h1M11 2h2M19 2h1M27 2h2M35 2h1M43 2h2M51 2h1M10 3h1M19 3h1M21 3h1M26 3h1M35 3h1M37 3h1M51 3h1M53 3h1M10 4h1M20 4h1M22 4h1M26 4h1M36 4h1M38 4h1M52 4h1M54 4h1M10 5h1M26 5h1M39 5h1M55 5h1M9 6h1M23 6h1M25 6h1M39 6h1M41 6h1M55 6h1M8 7h1M23 7h2M39 7h2M55 7h2M5 8h1M7 8h1M56 8h1M58 8h1M60 9h1M60 10h1M62 10h1M61 11h1M63 11h1M1 12h1M63 12h1M63 13h1M0 14h1M62 14h1M1 15h1M61 15h1M3 17h1M63 17h1M4 18h1M4 19h1M62 19h1M5 20h1M56 20h1M60 20h1M8 21h1M15 21h1M24 21h1M31 21h1M40 21h1M47 21h1M55 21h1M57 21h2M9 22h2M14 22h1M16 22h2M22 22h2M25 22h2M32 22h2M39 22h1M41 22h1M45 22h2M48 22h2M54 22h1M11 23h3M18 23h4M27 23h3M34 23h3M42 23h3M50 23h4" />
<path stroke="#010000" d="M15 0h1M30 0h1M48 0h1M29 1h1M50 1h1M42 3h1M59 7h1M57 9h1M2 16h1M62 16h1M63 18h1M7 20h1M38 22h1M37 23h1" />
<path stroke="#000100" d="M16 0h1M42 4h1M23 5h1M4 9h1M3 10h1M2 11h1M0 13h1M59 20h1M30 22h1" />
<path stroke="#000001" d="M32 0h1M34 1h1M42 5h1M6 8h1M60 8h1M2 12h1M61 19h1M6 20h1" />
<path stroke="#ffffff" d="M14 1h2M30 1h1M32 1h1M46 1h4M13 2h6M30 2h5M45 2h6M11 3h7M27 3h8M43 3h3M47 3h3M12 4h4M17 4h3M21 4h1M27 4h9M37 4h1M43 4h9M53 4h1M11 5h2M14 5h2M19 5h4M27 5h2M30 5h4M35 5h4M43 5h7M51 5h3M10 6h3M15 6h3M20 6h3M27 6h3M32 6h3M36 6h3M42 6h4M48 6h3M52 6h3M9 7h1M11 7h1M13 7h1M15 7h4M20 7h1M22 7h1M25 7h4M30 7h9M41 7h4M46 7h7M54 7h1M8 8h2M11 8h1M13 8h1M17 8h14M32 8h1M34 8h6M41 8h4M47 8h1M49 8h7M59 8h1M5 9h3M9 9h3M13 9h4M18 9h3M22 9h4M27 9h30M58 9h2M4 10h1M6 10h5M13 10h4M18 10h14M33 10h27M3 11h2M6 11h6M14 11h10M25 11h11M37 11h10M49 11h7M58 11h3M3 12h3M9 12h20M33 12h5M39 12h3M43 12h20M1 13h5M8 13h22M31 13h31M1 14h3M5 14h31M37 14h1M40 14h2M43 14h16M61 14h1M2 15h13M16 15h7M24 15h6M31 15h24M56 15h1M58 15h3M6 16h1M12 16h3M19 16h1M21 16h12M34 16h5M40 16h1M42 16h5M48 16h1M50 16h4M55 16h7M4 17h2M7 17h2M10 17h6M19 17h1M21 17h3M26 17h6M34 17h5M42 17h6M49 17h6M57 17h6M5 18h2M11 18h3M18 18h4M23 18h1M27 18h3M34 18h1M36 18h2M39 18h1M43 18h3M50 18h4M55 18h2M59 18h4M5 19h5M16 19h1M22 19h4M32 19h1M38 19h4M48 19h1M54 19h7M8 20h4M14 20h4M21 20h7M30 20h2M33 20h1M37 20h7M46 20h4M53 20h3M57 20h2M9 21h6M16 21h7M25 21h6M34 21h6M42 21h5M49 21h1M51 21h2M54 21h1M11 22h3M18 22h3M27 22h1M29 22h1M34 22h4M43 22h2M50 22h4" />
<path stroke="#fffffe" d="M16 1h1M31 1h1M50 3h1M16 4h1M18 5h1M54 5h1M26 6h1M10 7h1M19 7h1M12 8h1M15 8h1M33 8h1M45 8h1M48 8h1M8 9h1M17 9h1M26 9h1M12 11h1M24 11h1M36 11h1M48 11h1M57 11h1M8 12h1M29 12h1M32 12h1M38 12h1M7 13h1M36 14h1M39 14h1M42 14h1M60 14h1M23 15h1M4 16h1M7 16h1M10 16h1M16 16h1M18 17h1M24 17h1M33 17h1M39 17h1M35 18h1M23 21h1M32 21h1M41 21h1M50 21h1M53 21h1M28 22h1" />
<path stroke="#feffff" d="M17 1h1M18 3h1M11 4h1M13 5h1M16 5h1M14 7h1M53 7h1M10 8h1M16 8h1M31 8h1M40 8h1M46 8h1M12 9h1M21 9h1M5 10h1M11 10h1M17 10h1M32 10h1M13 11h1M6 12h1M30 12h1M42 12h1M62 13h1M4 14h1M15 15h1M30 15h1M57 15h1M8 16h1M11 16h1M20 16h1M41 16h1M47 16h1M40 17h1M55 17h1M57 18h1M33 21h1M48 21h1" />
<path stroke="#fffeff" d="M33 1h1M29 2h1M46 3h1M29 5h1M19 6h1M21 7h1M14 8h1M12 10h1M5 11h1M47 11h1M56 11h1M62 11h1M7 12h1M31 12h1M6 13h1M30 13h1M38 14h1M59 14h1M55 15h1M3 16h1M9 16h1M15 16h1M18 16h1M39 16h1M54 16h1M17 17h1M20 17h1M56 17h1M58 18h1M32 20h1M21 22h1M42 22h1" />
<path stroke="#00f7f7" d="M17 5h1M34 5h1M50 5h1M13 6h2M18 6h1M30 6h2M35 6h1M47 6h1M51 6h1M12 7h1M29 7h1M45 7h1M33 16h1M49 16h1M6 17h1M9 17h1M16 17h1M25 17h1M48 17h1M7 18h2M10 18h1M14 18h4M24 18h3M30 18h4M38 18h1M40 18h3M46 18h1M48 18h2M54 18h1M10 19h6M17 19h5M26 19h6M33 19h5M42 19h6M49 19h4M12 20h2M18 20h1M28 20h2M35 20h2M45 20h1M50 20h3" />
<path stroke="#00f6f7" d="M46 6h1M32 17h1M41 17h1M22 18h1M20 20h1M44 20h1" />
<path stroke="#01f7f7" d="M5 16h1M17 16h1M9 18h1M53 19h1M19 20h1M34 20h1" />
<path stroke="#00f7f6" d="M47 18h1" />
</svg>