<svg xmlns="http://www.w3.org/2000/svg" viewBox="0 -0.5 140 50" shape-rendering="crispEdges">
<metadata>Made with Pixels to Svg https://codepen.io/shshaw/pen/XbxvNj</metadata>
<path stroke="#ecac7e" d="M1 19h12M14 19h42M84 19h33M118 19h17M136 19h3" />
<path stroke="#ecac7f" d="M13 19h1M117 19h1M135 19h1" />
<path stroke="#000000" d="M56 19h1M69 19h2M83 19h1M7 20h1M21 20h1M28 20h1M35 20h1M42 20h1M49 20h1M69 20h1M83 20h1M90 20h1M97 20h1M104 20h1M111 20h1M118 20h1M125 20h1M7 21h1M14 21h1M21 21h1M28 21h1M35 21h1M42 21h1M49 21h1M58 21h1M67 21h1M69 21h1M72 21h1M83 21h1M90 21h1M97 21h1M104 21h1M111 21h1M118 21h1M125 21h1M132 21h1M1 22h11M13 22h7M21 22h24M46 22h2M49 22h7M69 22h1M83 22h10M94 22h45M4 23h1M11 23h1M18 23h1M25 23h1M32 23h1M39 23h1M46 23h1M53 23h1M61 23h3M69 23h1M75 23h3M83 23h1M87 23h1M94 23h1M101 23h1M108 23h1M115 23h1M122 23h1M129 23h1M136 23h1M4 24h1M11 24h1M18 24h1M25 24h1M32 24h1M39 24h1M46 24h1M53 24h1M61 24h1M66 24h1M69 24h1M75 24h1M80 24h1M83 24h1M87 24h1M94 24h1M101 24h1M108 24h1M115 24h1M122 24h1M129 24h1M136 24h1M4 25h1M11 25h1M18 25h1M25 25h1M32 25h1M46 25h1M53 25h1M61 25h1M66 25h1M69 25h1M75 25h1M80 25h1M83 25h1M87 25h1M94 25h1M101 25h1M108 25h1M115 25h1M122 25h1M129 25h1M136 25h1M1 26h12M14 26h21M36 26h20M59 26h3M66 26h1M69 26h1M73 26h3M80 26h1M83 26h7M91 26h16M108 26h31M7 27h1M14 27h1M21 27h1M28 27h1M42 27h1M49 27h1M64 27h3M69 27h1M78 27h3M83 27h1M90 27h1M97 27h1M104 27h1M111 27h1M118 27h1M125 27h1M132 27h1M7 28h1M14 28h1M21 28h1M28 28h1M35 28h1M42 28h1M49 28h1M64 28h1M69 28h1M78 28h1M83 28h1M90 28h1M97 28h1M104 28h1M111 28h1M118 28h1M125 28h1M132 28h1M7 29h1M21 29h1M28 29h1M35 29h1M42 29h1M49 29h1M63 29h2M69 29h1M77 29h2M83 29h1M90 29h1M97 29h1M104 29h1M111 29h1M118 29h1M125 29h1M132 29h1M1 30h30M32 30h2M35 30h21M69 30h1M83 30h6M90 30h31M122 30h1M124 30h15M4 31h1M11 31h1M18 31h1M25 31h1M32 31h1M39 31h1M46 31h1M53 31h1M64 31h1M78 31h1M83 31h1M87 31h1M94 31h1M101 31h1M108 31h1M115 31h1M122 31h1M129 31h1M136 31h1M4 32h1M11 32h1M18 32h1M25 32h1M32 32h1M39 32h1M46 32h1M53 32h1M63 32h2M67 32h1M69 32h1M72 32h1M77 32h2M81 32h1M83 32h1M87 32h1M94 32h1M101 32h1M108 32h1M115 32h1M122 32h1M129 32h1M136 32h1M4 33h1M11 33h1M18 33h1M25 33h1M32 33h1M39 33h1M46 33h1M69 33h1M83 33h1M87 33h1M94 33h1M101 33h1M108 33h1M115 33h1M122 33h1M129 33h1M136 33h1M1 34h75M77 34h43M121 34h18" />
<path stroke="#f88827" d="M57 19h12M71 19h12M56 20h1M70 20h1M56 21h1M56 22h1M60 22h5M70 22h1M74 22h5M56 23h1M59 23h2M64 23h2M70 23h1M73 23h1M78 23h2M56 24h1M59 24h2M64 24h2M70 24h1M73 24h2M78 24h2M56 25h1M59 25h2M64 25h2M70 25h1M73 25h2M78 25h2M56 26h1M63 26h2M70 26h1M77 26h3M56 27h1M63 27h1M70 27h1M77 27h1M56 28h1M62 28h2M70 28h1M76 28h2M56 29h1M70 29h1M56 30h1M62 30h2M70 30h1M76 30h2M56 31h1M62 31h2M70 31h1M76 31h2M56 32h1M70 32h1M56 33h1M70 33h1" />
<path stroke="#d46e2d" d="M1 20h6M8 20h1M10 20h4M16 20h5M22 20h6M29 20h6M36 20h6M43 20h3M47 20h2M50 20h6M84 20h6M91 20h6M98 20h6M105 20h6M112 20h6M119 20h6M126 20h6M133 20h6M1 21h6M8 21h4M13 21h1M15 21h6M22 21h6M29 21h6M36 21h6M43 21h6M51 21h5M84 21h3M88 21h2M91 21h6M98 21h6M105 21h6M112 21h6M119 21h6M126 21h5M133 21h6M1 23h3M5 23h5M12 23h3M16 23h2M19 23h6M26 23h6M33 23h6M40 23h6M47 23h3M51 23h2M54 23h2M84 23h2M88 23h1M91 23h3M95 23h6M102 23h2M105 23h3M109 23h6M116 23h4M121 23h1M123 23h6M130 23h6M137 23h2M1 24h3M5 24h6M12 24h6M20 24h5M26 24h2M29 24h3M33 24h2M36 24h3M40 24h6M47 24h3M51 24h2M54 24h2M84 24h3M88 24h6M95 24h5M102 24h6M109 24h6M116 24h3M120 24h2M123 24h1M125 24h4M130 24h6M137 24h2M1 25h3M5 25h6M12 25h6M20 25h5M26 25h6M33 25h6M40 25h1M42 25h4M47 25h4M52 25h1M54 25h2M84 25h3M88 25h6M95 25h6M102 25h6M109 25h6M116 25h6M123 25h6M130 25h6M137 25h2M1 27h6M8 27h6M15 27h6M22 27h6M29 27h6M36 27h6M43 27h6M50 27h6M84 27h6M91 27h5M98 27h6M105 27h3M109 27h2M112 27h6M119 27h2M122 27h3M127 27h5M133 27h6M1 28h4M6 28h1M8 28h6M16 28h5M22 28h6M29 28h6M36 28h6M43 28h6M50 28h6M84 28h6M91 28h6M98 28h6M105 28h6M112 28h6M119 28h6M126 28h6M133 28h6M1 29h6M8 29h6M15 29h6M22 29h6M29 29h6M36 29h6M44 29h5M50 29h6M84 29h6M91 29h6M98 29h6M105 29h6M112 29h6M119 29h6M126 29h6M133 29h4M138 29h1M1 31h3M5 31h1M7 31h4M12 31h6M19 31h6M26 31h6M33 31h6M40 31h6M47 31h6M55 31h1M84 31h1M86 31h1M88 31h6M95 31h6M102 31h6M109 31h6M116 31h5M123 31h6M130 31h6M137 31h1M1 32h3M5 32h6M12 32h6M19 32h6M26 32h6M33 32h6M40 32h6M47 32h6M54 32h2M84 32h3M88 32h6M95 32h6M102 32h6M109 32h6M116 32h6M123 32h6M130 32h6M137 32h2M1 33h3M5 33h6M12 33h6M19 33h6M26 33h6M33 33h6M40 33h6M47 33h6M54 33h2M84 33h3M88 33h6M95 33h6M102 33h6M109 33h6M116 33h6M123 33h1M125 33h1M127 33h2M130 33h1M132 33h4M137 33h2" />
<path stroke="#d46e2c" d="M9 20h1M50 21h1M87 21h1M131 21h1M15 23h1M50 23h1M86 23h1M90 23h1M120 23h1M19 24h1M35 24h1M119 24h1M96 27h1M126 27h1M15 28h1M54 31h1M85 31h1" />
<path stroke="#010000" d="M14 20h1M81 21h1M90 26h1M35 27h1M34 30h1M69 31h1" />
<path stroke="#d46f2d" d="M15 20h1M46 20h1M10 23h1M104 23h1M50 24h1M100 24h1M124 24h1M19 25h1M51 25h1M108 27h1M121 27h1M5 28h1M137 29h1M131 33h1" />
<path stroke="#ffc03c" d="M57 20h12M71 20h12M57 21h1M59 21h4M64 21h3M68 21h1M71 21h1M73 21h8M82 21h1M57 22h3M65 22h4M71 22h3M79 22h4M57 23h2M66 23h3M71 23h2M80 23h3M57 24h2M62 24h1M67 24h2M71 24h2M77 24h1M81 24h2M57 25h2M62 25h2M67 25h2M71 25h2M76 25h2M81 25h2M57 26h2M62 26h1M67 26h2M71 26h2M76 26h1M81 26h2M57 27h5M67 27h2M72 27h4M81 27h2M57 28h5M65 28h4M71 28h2M74 28h2M79 28h4M57 29h6M65 29h4M71 29h5M79 29h4M57 30h5M64 30h5M71 30h5M78 30h5M57 31h5M65 31h4M71 31h5M79 31h4M57 32h1M59 32h4M65 32h2M68 32h1M71 32h1M73 32h4M79 32h2M82 32h1M57 33h4M62 33h7M71 33h12" />
<path stroke="#000001" d="M132 20h1M12 22h1M45 22h1M13 26h1M31 30h1M89 30h1M123 30h1M53 33h1M76 34h1" />
<path stroke="#d56e2d" d="M12 21h1M89 23h1M28 24h1M41 25h1M43 29h1M6 31h1M121 31h1M138 31h1M124 33h1M126 33h1" />
<path stroke="#fec03c" d="M63 21h1M71 27h1M76 29h1" />
<path stroke="#f88927" d="M70 21h1M74 23h1M62 27h1M76 27h1" />
<path stroke="#000100" d="M20 22h1M48 22h1M93 22h1M39 25h1M35 26h1M107 26h1M14 29h1M121 30h1M58 32h1M120 34h1" />
<path stroke="#ffc03d" d="M63 24h1M76 24h1M61 33h1" />
<path stroke="#f88826" d="M65 26h1" />
<path stroke="#ffc13c" d="M73 28h1" />
</svg>