<svg xmlns="http://www.w3.org/2000/svg" viewBox="0 -0.5 130 100" shape-rendering="crispEdges">
<metadata>Made with Pixels to Svg https://codepen.io/shshaw/pen/XbxvNj</metadata>
<path stroke="#000000" d="M7 1h11M19 1h6M26 1h24M51 1h19M71 1h7M79 1h8M88 1h35M6 2h2M122 2h2M5 3h1M124 3h1M4 4h1M125 4h1M3 5h1M126 5h1M2 6h1M127 6h1M2 7h1M127 7h1M1 8h1M128 8h1M1 9h1M128 9h1M1 10h1M128 10h1M128 11h1M128 12h1M1 13h1M1 14h1M128 14h1M1 15h1M128 15h1M1 16h1M128 16h1M1 17h1M128 17h1M1 18h1M128 18h1M1 19h1M128 19h1M1 20h1M128 20h1M1 21h1M128 21h1M1 22h1M16 22h2M32 22h2M48 22h2M64 22h2M80 22h2M96 22h2M112 22h2M128 22h1M2 23h1M15 23h1M18 23h1M31 23h1M34 23h1M47 23h1M50 23h1M63 23h1M66 23h1M79 23h1M82 23h1M95 23h1M98 23h1M111 23h1M114 23h1M127 23h1M3 24h3M12 24h3M19 24h3M28 24h3M34 24h1M36 24h2M44 24h3M51 24h3M60 24h3M67 24h3M76 24h3M83 24h3M92 24h4M99 24h2M108 24h3M115 24h2M124 24h3M6 25h2M9 25h3M22 25h4M27 25h1M34 25h1M38 25h6M54 25h6M70 25h6M86 25h6M95 25h1M102 25h6M118 25h6M34 26h1M95 26h1M35 27h1M94 27h1M35 28h1M94 28h1M35 29h1M42 29h1M59 29h1M75 29h1M91 29h1M94 29h1M35 30h1M41 30h2M58 30h2M74 30h2M90 30h2M94 30h1M35 31h1M42 31h1M58 31h2M74 31h2M90 31h2M94 31h1M35 32h1M41 32h2M58 32h2M74 32h2M90 32h2M94 32h1M35 33h1M40 33h2M57 33h2M73 33h2M89 33h2M94 33h1M35 34h1M39 34h2M56 34h2M72 34h2M88 34h2M94 34h1M35 35h1M39 35h2M56 35h2M72 35h2M88 35h2M94 35h1M35 36h1M39 36h1M56 36h1M72 36h1M88 36h1M94 36h1M35 37h1M94 37h1M35 38h1M94 38h1M35 39h1M94 39h1M35 40h1M42 40h1M59 40h1M75 40h1M91 40h1M94 40h1M35 41h1M41 41h2M58 41h2M74 41h2M90 41h2M94 41h1M35 42h1M41 42h2M58 42h2M74 42h2M91 42h1M94 42h1M35 43h1M41 43h2M59 43h1M74 43h2M90 43h2M94 43h1M35 44h1M40 44h2M57 44h2M73 44h2M89 44h2M94 44h1M35 45h1M39 45h2M56 45h2M72 45h2M88 45h2M94 45h1M35 46h1M39 46h2M56 46h2M73 46h1M88 46h2M94 46h1M35 47h1M39 47h1M56 47h1M72 47h1M88 47h1M94 47h1M35 48h1M94 48h1M35 49h1M94 49h1M35 50h1M42 50h1M59 50h1M75 50h1M91 50h1M94 50h1M35 51h1M41 51h2M58 51h2M74 51h2M90 51h2M94 51h1M35 52h1M41 52h2M58 52h2M74 52h2M90 52h2M94 52h1M35 53h1M41 53h2M59 53h1M74 53h2M90 53h2M94 53h1M35 54h1M40 54h2M57 54h2M73 54h1M89 54h2M94 54h1M35 55h1M39 55h2M56 55h2M72 55h2M88 55h2M94 55h1M35 56h1M39 56h2M56 56h2M72 56h2M88 56h2M94 56h1M35 57h1M39 57h1M56 57h1M72 57h1M88 57h1M94 57h1M35 58h1M94 58h1M35 59h1M94 59h1M35 60h1M94 60h1M35 61h1M42 61h1M59 61h1M75 61h1M91 61h1M94 61h1M35 62h1M41 62h2M58 62h2M74 62h2M90 62h2M94 62h1M35 63h1M41 63h2M58 63h2M74 63h2M90 63h2M94 63h1M35 64h1M41 64h2M58 64h2M74 64h2M90 64h2M94 64h1M35 65h1M41 65h1M57 65h2M73 65h2M89 65h2M94 65h1M35 66h1M39 66h2M56 66h2M73 66h1M88 66h2M94 66h1M35 67h1M39 67h2M56 67h2M72 67h2M88 67h2M94 67h1M35 68h1M39 68h1M56 68h1M72 68h1M88 68h1M94 68h1M35 69h1M94 69h1M35 70h1M94 70h1M35 71h1M41 71h1M58 71h1M74 71h1M90 71h1M94 71h1M35 72h1M40 72h2M57 72h2M73 72h2M89 72h2M94 72h1M35 73h1M40 73h2M57 73h2M73 73h2M89 73h2M94 73h1M35 74h1M40 74h2M57 74h2M73 74h2M89 74h2M94 74h1M35 75h1M39 75h2M56 75h2M72 75h2M88 75h2M94 75h1M35 76h1M38 76h2M55 76h2M71 76h2M87 76h2M94 76h1M35 77h1M38 77h2M55 77h2M71 77h2M87 77h2M94 77h1M35 78h1M38 78h1M55 78h1M71 78h1M87 78h1M94 78h1M35 79h1M94 79h1M35 80h1M94 80h1M35 81h1M94 81h1M35 82h1M41 82h1M58 82h1M74 82h1M90 82h1M94 82h1M35 83h1M40 83h2M57 83h2M73 83h2M89 83h2M94 83h1M35 84h1M40 84h2M57 84h2M73 84h2M89 84h2M94 84h1M35 85h1M40 85h2M58 85h1M73 85h2M89 85h2M94 85h1M35 86h1M39 86h2M56 86h2M72 86h2M88 86h2M94 86h1M35 87h1M38 87h2M55 87h2M71 87h2M87 87h2M94 87h1M35 88h1M38 88h2M55 88h2M71 88h2M87 88h2M94 88h1M35 89h1M38 89h1M55 89h1M71 89h1M87 89h1M94 89h1M35 90h1M94 90h1M35 91h1M94 91h1M35 92h1M94 92h1M35 93h1M41 93h1M58 93h1M74 93h1M90 93h1M94 93h1M35 94h1M40 94h2M57 94h2M73 94h2M89 94h2M94 94h1M35 95h1M40 95h2M57 95h2M74 95h1M89 95h2M94 95h1M35 96h1M40 96h2M57 96h2M73 96h2M89 96h2M94 96h1M35 97h1M39 97h2M56 97h2M72 97h2M88 97h2M94 97h1M35 98h1M38 98h2M55 98h2M71 98h2M87 98h2M94 98h1M35 99h1M38 99h2M55 99h2M71 99h2M87 99h2M94 99h1" />
<path stroke="#000001" d="M18 1h1M78 1h1M35 24h1M58 43h1M72 46h1M58 53h1" />
<path stroke="#000100" d="M25 1h1M50 1h1M87 1h1M1 12h1M101 24h1M74 54h1M40 65h1" />
<path stroke="#010000" d="M70 1h1M1 11h1M128 13h1M117 24h1M8 25h1M26 25h1M41 31h1M72 66h1M57 85h1M73 95h1" />
<path stroke="#618f3a" d="M8 2h29M38 2h3M42 2h8M51 2h71M6 3h1M123 3h1M5 4h1M124 4h1M4 5h2M124 5h2M3 6h2M125 6h2M3 7h1M126 7h1M2 8h2M126 8h2M2 9h1M127 9h1M2 10h1M127 10h1M2 11h1M127 11h1M2 19h1M127 19h1M2 20h1M127 20h1M2 22h1M34 22h1M47 22h1M50 22h1M63 22h1M79 22h1M82 22h1M95 22h1M127 22h1M3 23h1M14 23h1M19 23h1M35 23h2M45 23h2M51 23h2M61 23h2M67 23h2M77 23h2M83 23h2M93 23h2M110 23h1M115 23h1M126 23h1M38 24h6M54 24h6M70 24h6M86 24h6" />
<path stroke="#618f3b" d="M37 2h1M50 2h1" />
<path stroke="#608f3a" d="M41 2h1M66 22h1" />
<path stroke="#7cd82b" d="M7 3h9M17 3h9M27 3h11M39 3h11M51 3h19M71 3h45M117 3h6M6 4h35M42 4h82M6 5h109M116 5h8M5 6h102M108 6h17M4 7h106M111 7h15M4 8h45M50 8h14M65 8h61M3 9h124M3 10h54M58 10h69M3 11h34M38 11h89M2 12h92M95 12h33M2 13h11M14 13h84M99 13h29M2 14h9M12 14h38M51 14h34M86 14h6M93 14h29M123 14h5M2 15h19M22 15h14M37 15h54M92 15h36M2 16h78M81 16h47M3 17h35M39 17h52M92 17h36M2 18h89M92 18h36M3 19h63M67 19h60M3 20h25M29 20h98M2 21h43M46 21h82M3 22h10M14 22h2M18 22h14M35 22h12M51 22h12M67 22h8M76 22h1M78 22h1M83 22h12M98 22h14M114 22h13M4 23h10M20 23h11M37 23h8M53 23h8M69 23h8M85 23h8M99 23h11M116 23h2M119 23h7M6 24h4M11 24h1M22 24h3M26 24h2M102 24h6M118 24h6" />
<path stroke="#7cd82a" d="M16 3h1M38 3h1M115 5h1M107 6h1M110 7h1M64 8h1M57 10h1M13 13h1M85 14h1M92 14h1M91 15h1M77 22h1M118 23h1M10 24h1" />
<path stroke="#7cd92b" d="M26 3h1M50 3h1M116 3h1M41 4h1M37 11h1M98 13h1M21 15h1M36 15h1M80 16h1M38 17h1M91 17h1M66 19h1M25 24h1" />
<path stroke="#7dd82b" d="M70 3h1M49 8h1M94 12h1M11 14h1M50 14h1M122 14h1M2 17h1M28 20h1M45 21h1M13 22h1M75 22h1" />
<path stroke="#7dd82a" d="M91 18h1" />
<path stroke="#5e3a1b" d="M48 23h2M64 23h2M80 23h2M47 24h4M63 24h4M79 24h1M82 24h1M35 25h3M44 25h3M51 25h3M60 25h3M67 25h1M69 25h1M76 25h3M83 25h3M92 25h3" />
<path stroke="#9c4c12" d="M80 24h2M47 25h4M63 25h4M79 25h3M35 26h60M36 27h9M46 27h5M52 27h15M68 27h10M79 27h15M36 28h30M67 28h9M77 28h17M36 29h5M44 29h12M57 29h1M61 29h13M77 29h12M93 29h1M36 30h5M44 30h14M61 30h7M69 30h5M77 30h13M93 30h1M36 31h4M44 31h13M61 31h12M77 31h12M93 31h1M36 32h4M44 32h9M54 32h3M61 32h12M77 32h12M93 32h1M36 33h3M43 33h13M60 33h12M76 33h12M92 33h2M36 34h2M42 34h13M59 34h6M66 34h5M75 34h11M91 34h3M36 35h2M42 35h13M59 35h12M75 35h12M91 35h3M36 36h2M41 36h14M58 36h13M74 36h13M90 36h4M36 37h16M54 37h40M36 38h58M36 39h40M77 39h17M36 40h5M44 40h5M50 40h8M61 40h13M78 40h12M93 40h1M36 41h5M44 41h9M54 41h4M61 41h13M77 41h13M93 41h1M36 42h4M44 42h13M61 42h12M77 42h12M36 43h4M44 43h13M61 43h12M78 43h11M93 43h1M36 44h3M43 44h13M60 44h12M76 44h12M92 44h2M36 45h2M42 45h13M59 45h12M75 45h12M91 45h3M36 46h2M42 46h13M59 46h12M75 46h12M91 46h3M36 47h2M41 47h14M58 47h13M75 47h2M78 47h9M90 47h4M36 48h58M36 49h58M36 50h5M44 50h8M53 50h5M61 50h13M77 50h13M93 50h1M36 51h5M44 51h14M61 51h13M77 51h13M93 51h1M36 52h4M44 52h13M61 52h12M77 52h12M93 52h1M36 53h4M44 53h9M54 53h3M61 53h12M77 53h6M84 53h5M93 53h1M36 54h3M43 54h13M60 54h12M76 54h12M92 54h2M36 55h2M42 55h12M59 55h12M75 55h12M91 55h3M36 56h2M42 56h13M59 56h12M75 56h12M91 56h3M36 57h2M41 57h5M47 57h8M58 57h13M74 57h13M90 57h4M36 58h58M36 59h9M46 59h48M36 60h46M83 60h2M86 60h1M88 60h6M36 61h5M44 61h14M61 61h13M77 61h13M93 61h1M36 62h5M44 62h14M61 62h13M77 62h5M83 62h7M93 62h1M36 63h4M44 63h13M61 63h5M67 63h6M77 63h12M93 63h1M36 64h4M45 64h12M61 64h9M71 64h2M77 64h12M93 64h1M36 65h3M43 65h13M60 65h12M76 65h9M86 65h2M92 65h2M36 66h2M42 66h13M59 66h1M61 66h10M75 66h12M91 66h3M36 67h2M42 67h13M59 67h12M75 67h12M91 67h3M36 68h2M41 68h14M58 68h2M61 68h8M70 68h1M74 68h13M90 68h4M36 69h5M42 69h15M58 69h36M36 70h8M45 70h46M92 70h2M36 71h4M43 71h2M46 71h11M60 71h13M76 71h13M92 71h2M36 72h3M43 72h13M60 72h13M76 72h13M92 72h2M36 73h3M43 73h13M60 73h12M76 73h12M92 73h2M36 74h3M43 74h3M47 74h9M60 74h12M76 74h4M81 74h7M92 74h2M36 75h2M42 75h13M59 75h12M75 75h12M91 75h3M36 76h1M41 76h13M58 76h12M74 76h12M90 76h4M36 77h1M41 77h13M58 77h12M74 77h12M90 77h4M36 78h1M40 78h14M57 78h8M66 78h4M73 78h13M89 78h5M36 79h58M36 80h58M36 81h15M52 81h5M58 81h25M84 81h10M36 82h4M43 82h14M60 82h13M76 82h13M92 82h2M36 83h4M43 83h1M45 83h12M60 83h13M76 83h13M92 83h2M36 84h3M43 84h13M60 84h7M68 84h4M76 84h9M86 84h2M92 84h1M36 85h3M43 85h13M60 85h12M76 85h12M92 85h2M36 86h2M42 86h1M44 86h11M59 86h12M75 86h12M91 86h3M36 87h1M41 87h13M58 87h12M74 87h12M90 87h4M36 88h1M41 88h13M58 88h5M64 88h6M74 88h12M90 88h4M36 89h1M40 89h14M57 89h13M73 89h13M89 89h5M36 90h3M40 90h10M51 90h43M36 91h49M86 91h8M36 92h44M81 92h13M36 93h1M38 93h2M43 93h14M60 93h13M77 93h12M92 93h2M36 94h4M43 94h14M60 94h13M76 94h13M92 94h2M36 95h3M43 95h13M60 95h12M76 95h12M92 95h2M36 96h3M43 96h13M60 96h12M76 96h6M84 96h4M92 96h2M36 97h2M42 97h13M59 97h12M75 97h12M91 97h3M36 98h1M41 98h10M52 98h1M58 98h12M74 98h5M80 98h6M90 98h4M36 99h1M41 99h13M58 99h12M74 99h12M90 99h4" />
<path stroke="#5e3b1b" d="M68 25h1" />
<path stroke="#9c4d12" d="M82 25h1M45 27h1M66 28h1M56 29h1M53 32h1M53 41h1M93 42h1M74 47h1M46 57h1M87 60h1M44 64h1M85 65h1M60 66h1M69 68h1M44 70h1M39 72h1M56 72h1M80 74h1M85 84h1M43 86h1M39 90h1M50 90h1M85 91h1M37 93h1M76 93h1M82 96h1M53 98h1M79 98h1" />
<path stroke="#9d4c12" d="M51 27h1M67 27h1M89 29h1M52 37h1M77 40h1M77 43h1M52 50h1M82 60h1M82 62h1M70 64h1M60 68h1M91 70h1M46 74h1M65 78h1M51 81h1M57 81h1M83 81h1M44 83h1M67 84h1M63 88h1M83 96h1" />
<path stroke="#9c4c13" d="M78 27h1M76 28h1M65 34h1M86 34h1M53 37h1M76 39h1M49 40h1M77 47h1M53 53h1M54 55h1M45 59h1M85 60h1M66 63h1M41 69h1M57 69h1M45 71h1M93 84h1M80 92h1M51 98h1" />
<path stroke="#543417" d="M41 29h1M43 29h1M58 29h1M60 29h1M74 29h1M76 29h1M90 29h1M92 29h1M60 30h1M76 30h1M92 30h1M40 31h1M43 31h1M57 31h1M60 31h1M73 31h1M76 31h1M89 31h1M92 31h1M40 32h1M43 32h1M57 32h1M60 32h1M73 32h1M76 32h1M89 32h1M92 32h1M39 33h1M42 33h1M56 33h1M59 33h1M75 33h1M88 33h1M91 33h1M38 34h1M41 34h1M55 34h1M58 34h1M71 34h1M74 34h1M87 34h1M90 34h1M38 35h1M41 35h1M55 35h1M58 35h1M71 35h1M74 35h1M87 35h1M90 35h1M38 36h1M40 36h1M55 36h1M57 36h1M71 36h1M73 36h1M87 36h1M89 36h1M41 40h1M43 40h1M58 40h1M60 40h1M74 40h1M76 40h1M90 40h1M92 40h1M43 41h1M60 41h1M76 41h1M92 41h1M40 42h1M43 42h1M57 42h1M60 42h1M73 42h1M89 42h1M92 42h1M40 43h1M43 43h1M57 43h1M60 43h1M73 43h1M76 43h1M89 43h1M92 43h1M39 44h1M42 44h1M56 44h1M59 44h1M72 44h1M75 44h1M88 44h1M91 44h1M38 45h1M41 45h1M55 45h1M58 45h1M71 45h1M74 45h1M87 45h1M90 45h1M38 46h1M41 46h1M55 46h1M58 46h1M71 46h1M74 46h1M87 46h1M90 46h1M38 47h1M40 47h1M55 47h1M57 47h1M71 47h1M73 47h1M87 47h1M89 47h1M41 50h1M43 50h1M58 50h1M60 50h1M74 50h1M76 50h1M90 50h1M92 50h1M43 51h1M60 51h1M76 51h1M92 51h1M40 52h1M43 52h1M57 52h1M60 52h1M73 52h1M76 52h1M89 52h1M92 52h1M40 53h1M43 53h1M57 53h1M60 53h1M73 53h1M76 53h1M89 53h1M92 53h1M39 54h1M42 54h1M56 54h1M59 54h1M72 54h1M75 54h1M88 54h1M91 54h1M38 55h1M41 55h1M55 55h1M58 55h1M71 55h1M74 55h1M87 55h1M90 55h1M38 56h1M41 56h1M55 56h1M58 56h1M74 56h1M87 56h1M90 56h1M38 57h1M40 57h1M55 57h1M57 57h1M71 57h1M73 57h1M87 57h1M89 57h1M41 61h1M43 61h1M58 61h1M60 61h1M74 61h1M76 61h1M90 61h1M92 61h1M43 62h1M60 62h1M76 62h1M92 62h1M40 63h1M43 63h1M57 63h1M60 63h1M73 63h1M76 63h1M89 63h1M92 63h1M40 64h1M43 64h1M57 64h1M60 64h1M73 64h1M76 64h1M89 64h1M92 64h1M39 65h1M42 65h1M56 65h1M59 65h1M72 65h1M75 65h1M88 65h1M91 65h1M38 66h1M41 66h1M55 66h1M58 66h1M71 66h1M74 66h1M87 66h1M90 66h1M38 67h1M41 67h1M55 67h1M58 67h1M71 67h1M74 67h1M87 67h1M90 67h1M38 68h1M40 68h1M55 68h1M57 68h1M71 68h1M73 68h1M87 68h1M89 68h1M40 71h1M42 71h1M57 71h1M59 71h1M73 71h1M75 71h1M89 71h1M91 71h1M42 72h1M59 72h1M75 72h1M91 72h1M39 73h1M42 73h1M56 73h1M59 73h1M72 73h1M75 73h1M88 73h1M91 73h1M39 74h1M42 74h1M56 74h1M59 74h1M72 74h1M75 74h1M88 74h1M91 74h1M38 75h1M41 75h1M55 75h1M58 75h1M71 75h1M74 75h1M87 75h1M90 75h1M40 76h1M54 76h1M57 76h1M70 76h1M73 76h1M86 76h1M89 76h1M37 77h1M40 77h1M54 77h1M57 77h1M70 77h1M73 77h1M86 77h1M89 77h1M37 78h1M39 78h1M54 78h1M56 78h1M70 78h1M72 78h1M86 78h1M88 78h1M40 82h1M42 82h1M57 82h1M59 82h1M73 82h1M75 82h1M89 82h1M91 82h1M42 83h1M59 83h1M75 83h1M91 83h1M39 84h1M42 84h1M56 84h1M72 84h1M75 84h1M88 84h1M91 84h1M39 85h1M42 85h1M56 85h1M59 85h1M72 85h1M75 85h1M88 85h1M91 85h1M38 86h1M41 86h1M55 86h1M58 86h1M71 86h1M87 86h1M90 86h1M37 87h1M40 87h1M54 87h1M57 87h1M70 87h1M73 87h1M86 87h1M89 87h1M37 88h1M40 88h1M54 88h1M57 88h1M70 88h1M73 88h1M86 88h1M89 88h1M37 89h1M39 89h1M54 89h1M56 89h1M70 89h1M72 89h1M86 89h1M88 89h1M40 93h1M42 93h1M57 93h1M59 93h1M73 93h1M75 93h1M89 93h1M91 93h1M42 94h1M59 94h1M75 94h1M91 94h1M39 95h1M42 95h1M56 95h1M59 95h1M72 95h1M75 95h1M88 95h1M91 95h1M39 96h1M42 96h1M56 96h1M59 96h1M72 96h1M75 96h1M88 96h1M91 96h1M38 97h1M41 97h1M55 97h1M58 97h1M71 97h1M74 97h1M87 97h1M90 97h1M37 98h1M40 98h1M54 98h1M57 98h1M70 98h1M73 98h1M86 98h1M89 98h1M37 99h1M40 99h1M54 99h1M57 99h1M70 99h1M73 99h1M86 99h1M89 99h1" />
<path stroke="#553417" d="M43 30h1M37 76h1" />
<path stroke="#9c4d13" d="M68 30h1" />
<path stroke="#543517" d="M72 33h1M76 42h1M59 84h1" />
<path stroke="#010100" d="M90 42h1" />
<path stroke="#9d4d12" d="M83 53h1" />
<path stroke="#543416" d="M71 56h1M74 86h1" />
</svg>